<?xml version="1.0" standalone="no"?>
<!DOCTYPE svg PUBLIC "-//W3C//DTD SVG 20010904//EN"
 "http://www.w3.org/TR/2001/REC-SVG-20010904/DTD/svg10.dtd">
<svg version="1.0" xmlns="http://www.w3.org/2000/svg"
 width="700.000000pt" height="700.000000pt" viewBox="0 0 700.000000 700.000000"
 preserveAspectRatio="xMidYMid meet">
<metadata>
Created by potrace 1.14, written by Peter Selinger 2001-2017
</metadata>
<g transform="translate(0.000000,700.000000) scale(0.100000,-0.100000)"
fill="#000000" stroke="none">
<path d="M3278 6996 c-1 -2 -41 -6 -88 -10 -47 -4 -101 -9 -120 -12 -87 -13
-217 -34 -240 -39 -14 -3 -47 -10 -75 -15 -90 -18 -268 -68 -390 -110 -115
-40 -134 -47 -217 -84 -20 -9 -39 -16 -43 -16 -13 0 -309 -152 -384 -198 -79
-47 -242 -153 -251 -162 -3 -3 -41 -32 -85 -65 -44 -32 -85 -64 -91 -69 -6 -6
-41 -36 -78 -66 -99 -82 -339 -330 -439 -455 -284 -353 -495 -755 -630 -1200
-30 -99 -83 -324 -92 -389 -2 -20 -5 -39 -25 -171 -38 -248 -30 -714 15 -980
112 -649 348 -1174 753 -1675 111 -137 368 -392 507 -503 95 -77 396 -287 410
-287 3 0 24 -12 46 -26 59 -37 278 -145 390 -193 247 -104 627 -209 859 -237
30 -3 66 -8 80 -10 180 -26 670 -25 832 1 13 2 45 6 72 10 566 71 1167 325
1646 693 338 261 607 563 865 972 49 78 195 358 195 375 0 2 13 33 29 67 50
111 125 331 161 478 11 47 25 99 30 115 7 25 34 180 54 315 29 188 29 720 2
890 -3 14 -7 43 -10 65 -9 70 -17 118 -33 190 -8 39 -17 81 -19 95 -21 107
-96 345 -161 510 -56 143 -210 453 -248 500 -6 8 -23 36 -38 61 -58 102 -245
351 -352 469 -390 431 -858 751 -1387 949 -200 75 -468 146 -663 176 -27 5
-57 9 -65 10 -8 2 -46 6 -85 10 -38 4 -81 9 -95 12 -27 5 -536 13 -542 9z"/>
</g>
</svg>
