<svg id="Layer_1" data-name="Layer 1" xmlns="http://www.w3.org/2000/svg" viewBox="0 0 512 512"><defs><style>.cls-1{fill:#45ac58;}.cls-2{fill:#fff;}.cls-3{fill:#fbd557;}</style></defs><title>checks</title><path class="cls-1" d="M256.7,57.06c108.55,0,196.56,88,196.56,196.56s-88,196.55-196.56,196.55-196.56-88-196.56-196.55h0C59.83,145.37,147.33,57.37,255.58,57.06Z"/><polygon class="cls-2" points="365.59 199.45 225.99 339.05 147.81 261.43 179.64 230.16 225.99 275.95 333.76 168.18 365.59 199.45"/><path class="cls-3" d="M458.21,375.53v4.57h9.14v-4.57a22.64,22.64,0,0,1,22.85-22.86v-9.14a22.63,22.63,0,0,1-22.85-22.86V316.1h-9.14v4.57a22.63,22.63,0,0,1-22.86,22.86v9.14A22.64,22.64,0,0,1,458.21,375.53Zm4.57-38.4a31.48,31.48,0,0,0,11,11,31.48,31.48,0,0,0-11,11,31.57,31.57,0,0,0-11-11A31.57,31.57,0,0,0,462.78,337.13Z"/><path class="cls-3" d="M57.43,131.67v6.54H70.51v-6.54A32.37,32.37,0,0,1,103.2,99V85.9A32.37,32.37,0,0,1,70.51,53.2V46.67H57.43V53.2A32.37,32.37,0,0,1,24.74,85.9V99A32.37,32.37,0,0,1,57.43,131.67ZM64,76.74a45,45,0,0,0,15.69,15.7A45,45,0,0,0,64,108.13,45.16,45.16,0,0,0,48.28,92.44,45.18,45.18,0,0,0,64,76.74Z"/><path class="cls-3" d="M393.86,384.21v-6.86H380.13v6.86a34,34,0,0,1-34.33,34.34v13.73a34,34,0,0,1,34.33,34.33v6.86h13.73v-6.86a34,34,0,0,1,34.33-34.33V418.55A34,34,0,0,1,393.86,384.21ZM387,441.89a47.45,47.45,0,0,0-16.48-16.48A47.37,47.37,0,0,0,387,408.93a47.34,47.34,0,0,0,16.47,16.48A47.42,47.42,0,0,0,387,441.89Z"/><path class="cls-3" d="M470.2,455.09v3.55h7.1v-3.55a17.58,17.58,0,0,1,17.75-17.75v-7.1a17.58,17.58,0,0,1-17.75-17.76v-3.55h-7.1v3.55a17.58,17.58,0,0,1-17.76,17.76v7.1A17.58,17.58,0,0,1,470.2,455.09Zm3.55-29.82a24.47,24.47,0,0,0,8.52,8.52,24.47,24.47,0,0,0-8.52,8.52,24.47,24.47,0,0,0-8.52-8.52A24.47,24.47,0,0,0,473.75,425.27Z"/></svg>