<?xml version="1.0" encoding="utf-8"?>
<!-- Generator: Adobe Illustrator 22.0.0, SVG Export Plug-In . SVG Version: 6.00 Build 0)  -->
<svg version="1.1" id="Layer_1" xmlns="http://www.w3.org/2000/svg" xmlns:xlink="http://www.w3.org/1999/xlink" x="0px" y="0px"
	 viewBox="0 0 512 512" style="enable-background:new 0 0 512 512;" xml:space="preserve">
<style type="text/css">
	.st0{fill:#CCC6C6;}
	.st1{fill:#E8906E;}
	.st2{fill:#EA9A7C;}
	.st3{fill:#F4C9A9;}
	.st4{fill:#ECB28A;}
	.st5{fill:#F6D4BF;}
	.st6{fill:#EBA07B;}
	.st7{fill:#ECA487;}
	.st8{fill:#EA9D83;}
	.st9{fill:#E9957A;}
	.st10{fill:#EFB3A0;}
	.st11{opacity:0.42;}
	.st12{opacity:0.44;fill:none;stroke:#B06138;stroke-linecap:round;stroke-miterlimit:10;}
	.st13{opacity:0.39;fill:#F7D7C1;}
	.st14{fill:#FFFFFF;}
	.st15{fill:#4B57A0;}
	.st16{fill:#DB3B3C;}
	.st17{fill:#45AC58;}
	.st18{fill:#FBD557;}
</style>
<path class="st0" d="M352.3,303.4l-18.3,5.2l2.3,8.1c-2,0.6-3.6,1.2-4.5,1.5c-11,4.4-15.9,4.9-20.3,5.5c-0.4,0-0.7,0.1-1.1,0.1
	c-0.1,0-0.2,0-0.2,0c-0.3,0-0.7,0-1,0.1c0,0,0,0-0.1,0c-0.3,0-0.6,0-0.9,0c-0.1,0-0.1,0-0.2,0c-0.3,0-0.6,0-0.9,0c0,0,0,0-0.1,0
	c-0.3,0-0.6,0-0.9-0.1c0,0-0.1,0-0.1,0c-0.3,0-0.6-0.1-0.9-0.1c0,0,0,0-0.1,0c-0.6-0.1-1.3-0.2-2-0.4h0c-0.8-0.2-1.7-0.4-2.7-0.7
	c-4.4-1.1-16.4-2.2-22.5-2.2c-4.1,0-8.1-2-12.7-3c0,0,0,0,0,0c0,0-0.1,0-0.1,0c-0.1,0-0.2,0-0.3-0.1c-0.3-0.1-0.6-0.1-0.9-0.2
	c-0.1,0-0.2,0-0.2,0c-0.4-0.1-0.8-0.1-1.1-0.1c-0.1,0-0.2,0-0.3,0c-0.4,0-0.7,0-1.1-0.1c0,0-0.1,0-0.1,0c-0.4,0-0.8,0-1.2,0
	c-0.1,0-0.2,0-0.3,0c-0.4,0-0.8,0.1-1.3,0.1c-1.7,0.2-3.3,0.7-4.7,1.4c-6.1-2.6-11.5-0.9-15.3,0.8c-4.9,2.2-14.3,4.9-25.2,9.3
	c-11,4.4-21.4,8.8-28.5,7.1c-4.5-1-9.4-1-17.7-0.5l0-9.7l-19,0.1l0,10.8l0-8.7L0.1,327.8c0.3,10.3,0,56.6,0,74.8l147.9-0.2l0,2
	l19-0.1l0-13c2-0.1,3.4-0.2,4.4-0.2c4.2,0,7.4,0.7,10.3,1.9c-0.1,0.1-0.1,0.2-0.2,0.3c0,0-0.3,1.1-0.6,2.6c0,0,0,0,0,0c0,0,0,0,0,0
	c-0.3,1.4-0.5,3.2-0.5,5.1c0,3.8-0.5,11.5,7.1,12.1c3.4,0.2,6.5-1.1,8.9-3v0c0,0,0,0,0,0c0.2-0.1,0.3-0.3,0.5-0.4
	c0.1-0.1,0.1-0.1,0.2-0.2c0.1-0.1,0.2-0.2,0.3-0.3c0.1-0.1,0.1-0.1,0.2-0.2c0.1-0.1,0.2-0.2,0.3-0.3c0.1-0.1,0.1-0.1,0.2-0.2
	c0.1-0.1,0.2-0.2,0.3-0.3c0.1-0.1,0.1-0.1,0.2-0.2c0.1-0.1,0.2-0.2,0.2-0.3c0.1-0.1,0.1-0.1,0.2-0.2c0.1-0.1,0.2-0.2,0.2-0.3
	c0-0.1,0.1-0.1,0.1-0.2c0.1-0.1,0.2-0.2,0.2-0.3c0-0.1,0.1-0.1,0.1-0.2c0.2-0.3,0.4-0.7,0.5-1c0-0.1,0-0.1,0.1-0.2
	c0-0.1,0.1-0.2,0.1-0.3c0-0.1,0-0.1,0.1-0.2c0-0.1,0.1-0.2,0.1-0.3c0-0.1,0-0.1,0.1-0.2c0.5,0.2,0.9,0.5,1.4,0.8
	c-3,4.1-6.9,9.9-3.6,15.7c4.3,7.6,14.6,8.7,19.6,4c-0.5,2.1-1.1,4.6,1.8,8.1c3.3,3.8,9.3,5.5,16.2,2.3v0c0,0,0,0.1,0,0.1
	c0,0.2,0.1,0.4,0.1,0.6c0,0,0,0,0,0.1c0.1,0.7,0.3,1.4,0.6,2c0,0,0,0,0,0c0.3,0.7,0.6,1.3,1.1,1.9c0,0,0,0,0,0
	c1.4,2,3.8,3.5,7.2,3.9c8.3,1,11.2-1.9,16.2-8.2c0.3,0.1,0.6,0.3,0.8,0.4c0,0,0.1,0,0.1,0c0.8,0.3,1.6,0.7,2.4,0.9
	c0.1,0,0.1,0,0.2,0.1c0.4,0.1,0.7,0.2,1.1,0.3c0.1,0,0.2,0,0.3,0.1c0.9,0.2,1.8,0.3,2.8,0.4c0.1,0,0.3,0,0.4,0c0.4,0,0.8,0,1.2,0
	c0.2,0,0.3,0,0.5,0c0.5,0,1.1,0,1.7-0.1c0.3,0,0.6-0.1,0.9-0.1c0.1,0,0.1,0,0.2,0c0.3,0,0.5-0.1,0.8-0.2c0,0,0,0,0,0
	c0.3-0.1,0.5-0.2,0.7-0.2c0.1,0,0.1,0,0.2-0.1c0.2-0.1,0.4-0.2,0.6-0.3c0,0,0,0,0.1,0c0.2-0.1,0.4-0.2,0.5-0.4c0,0,0.1-0.1,0.1-0.1
	c0.1-0.1,0.3-0.2,0.4-0.4c0,0,0,0,0.1,0c0.1-0.1,0.3-0.3,0.4-0.4c0,0,0.1-0.1,0.1-0.1c0.1-0.1,0.2-0.3,0.3-0.4c0,0,0,0,0-0.1
	c0.1-0.2,0.2-0.3,0.3-0.5c0,0,0-0.1,0.1-0.1c0.1-0.1,0.1-0.3,0.2-0.4c0,0,0,0,0-0.1c0.1-0.2,0.1-0.3,0.2-0.5c0,0,0-0.1,0-0.1
	c0-0.1,0.1-0.3,0.1-0.4c0,0,0,0,0-0.1c0-0.2,0.1-0.3,0.1-0.5c0,0,0-0.1,0-0.1c0-0.1,0-0.3,0.1-0.4c0,0,0,0,0,0c0-0.2,0-0.3,0-0.5
	c0,0,0,0,0,0c0-0.1,0-0.2,0-0.2c0,0,0,0,0,0c0-0.1,0-0.2,0-0.3c0,0,0,0,0,0c0-0.1,0-0.2,0-0.2c0,0,0,0,0-0.1c0-0.1,0-0.1,0-0.2
	c0,0,0,0,0,0c0-0.2,0-0.3,0-0.4c0,0,0,0,0,0c0-0.1,0-0.2,0-0.2s6,1.6,10.4-1.6c2.9-2.2,3.2-5.5,3-7.5c0,0,0,0,0,0c0-0.1,0-0.1,0-0.2
	c0,0,0-0.1,0-0.1c0-0.2,0-0.3-0.1-0.4c0,0,0-0.1,0-0.1c0-0.1,0-0.2,0-0.3c0,0,0-0.1,0-0.1c0-0.1,0-0.2-0.1-0.3c0,0,0,0,0-0.1
	c0-0.1,0-0.1,0-0.1c0,0,0,0,0,0c0,0,0,0,0,0s0,0,0.1,0c0,0,0,0,0,0c0.2,0.1,1.2,0.3,2.6,0.6h0c0,0,0,0,0,0c0.2,0,0.3,0.1,0.5,0.1
	c0,0,0.1,0,0.1,0c0.2,0,0.3,0,0.5,0.1c0,0,0.1,0,0.1,0c0.2,0,0.4,0,0.6,0.1c0,0,0,0,0,0c0.2,0,0.4,0,0.6,0c0.1,0,0.1,0,0.2,0
	c0.2,0,0.3,0,0.5,0c0.1,0,0.1,0,0.2,0c0.2,0,0.4,0,0.7,0c0,0,0,0,0,0c0.2,0,0.4,0,0.7,0c0.1,0,0.1,0,0.2,0c0.2,0,0.3,0,0.5-0.1
	c0.1,0,0.1,0,0.2,0c0.2,0,0.4-0.1,0.5-0.1c0,0,0.1,0,0.1,0c0.2,0,0.4-0.1,0.7-0.1c0.1,0,0.1,0,0.2,0c0.2,0,0.3-0.1,0.5-0.1
	c0.1,0,0.1,0,0.2-0.1c0.2-0.1,0.3-0.1,0.5-0.2c0.1,0,0.1,0,0.2-0.1c0.2-0.1,0.4-0.2,0.6-0.3c0,0,0.1,0,0.1-0.1
	c0.2-0.1,0.3-0.2,0.5-0.3c0.1,0,0.1-0.1,0.2-0.1c0.1-0.1,0.3-0.2,0.4-0.3c0.1,0,0.1-0.1,0.2-0.1c0.2-0.1,0.4-0.3,0.6-0.5
	c0.2-0.1,0.3-0.3,0.4-0.4c0,0,0.1-0.1,0.1-0.1c0.1-0.1,0.2-0.2,0.3-0.3c0-0.1,0.1-0.1,0.1-0.2c0.1-0.1,0.1-0.2,0.2-0.3
	c0-0.1,0.1-0.1,0.1-0.2c0.1-0.1,0.1-0.2,0.2-0.3c0-0.1,0.1-0.1,0.1-0.2c0.1-0.1,0.1-0.2,0.2-0.3c0-0.1,0.1-0.1,0.1-0.2
	c0-0.1,0.1-0.2,0.1-0.3c0-0.1,0.1-0.2,0.1-0.2c0-0.1,0.1-0.2,0.1-0.3c0-0.1,0-0.2,0.1-0.2c0-0.1,0.1-0.2,0.1-0.3
	c0-0.1,0-0.2,0.1-0.2c0-0.1,0-0.2,0.1-0.3c0-0.1,0-0.2,0-0.2c0-0.1,0-0.2,0-0.3c0-0.1,0-0.2,0-0.2c0-0.1,0-0.2,0-0.3
	c0-0.1,0-0.2,0-0.2c0-0.1,0-0.2,0-0.3c0-0.1,0-0.2,0-0.2c0-0.1,0-0.2,0-0.3c0-0.1,0-0.2,0-0.3c0-0.1,0-0.2,0-0.3c0-0.1,0-0.2,0-0.3
	c0-0.1,0-0.2,0-0.3c0-0.1,0-0.2,0-0.3c0-0.1,0-0.2,0-0.3c0-0.1,0-0.2,0-0.3c0-0.1,0-0.2,0-0.3c0-0.1,0-0.2-0.1-0.3
	c0-0.1,0-0.1,0-0.2c-0.2-1-0.5-1.9-0.9-2.7c0,0,0,0,0,0c-0.1-0.1-0.1-0.3-0.2-0.4c0,0,0,0,0,0c-0.1-0.1-0.1-0.2-0.2-0.4c0,0,0,0,0,0
	c-0.1-0.1-0.1-0.2-0.2-0.3c0,0,0,0,0,0c-0.1-0.1-0.1-0.2-0.2-0.3c0,0,0,0,0,0c-0.1-0.1-0.1-0.2-0.2-0.3c0,0,0,0,0,0
	c0-0.1-0.1-0.1-0.1-0.1c1.9-1.2,3.7-2.5,5.5-3.8c4.5,3.1,11.5,1.9,14.6-2.3c2.2-2.9,1-6.2-1-9.3c2.5-2.2,4.9-4.3,7.3-6.1
	c0.3-0.2,0.6-0.4,0.9-0.7c0,0,0,0,0,0c0.3-0.2,0.6-0.4,0.9-0.6c5.8-4,10.6-5.7,17.7-7.3l3.3,11.6l18.3-5.2l-2.8-9.6h0l2.2,7.7
	L512,336.9c0-8.9,0-60.1,0-77.8l-159.2,46.2L352.3,303.4z M261,348.3C261,348.3,261,348.3,261,348.3c0-0.1,0-0.1,0-0.2
	C261,348.2,261,348.2,261,348.3z M261.3,347.5C261.3,347.4,261.3,347.4,261.3,347.5C261.3,347.4,261.3,347.4,261.3,347.5
	C261.3,347.4,261.3,347.4,261.3,347.5z M345,347.1C345,347.1,345,347.1,345,347.1L345,347.1C345,347.1,345,347.1,345,347.1z"/>
<g>
	<g>
		<g>
			<path class="st1" d="M320.8,351.6c-3.6,2.6-5.7,6.7-9.8,9.8c-4.1,3.1-17,4.6-17,4.6s-9.8-6.7-17.5-10.3c-7.7-3.6-13.4-6.2-16-7.2
				c-1.5-0.6-1.2-1.8-0.8-2.6c-0.6,0.7-1.7,1.6-2.9,1.6c-1.1,0-1.5-0.3-1.6-0.6c-0.5,0.9-3.4,1.8-5.1,3.2c-1.2,0.9-1.9,0.4-2.2-0.2
				c0.2,0.7,0.5,1.8,0.2,2.8c-0.5,1.5-4.6,11.8-8.8,19c-2.6,4.6-7.9,4.8-11.8,3.2c-16.7,39.2,32.9,52.9,32.9,52.9
				s23.2-19.6,36.6-26.8c13.4-7.2,21.6-17,29.9-23.2c8.2-6.2,13.9-7.2,26.3-9.8c12.4-2.6,37.1-6.5,61.8-11.7l-0.4-33
				C408.5,325.1,324.2,349.1,320.8,351.6z"/>
			<path class="st2" d="M319.7,352.6c-0.1,0-0.1,0-0.2-0.1c-2.9,2.6-4.9,6.1-8.6,8.8c-4.1,3.1-17,4.6-17,4.6s-9.8-6.7-17.5-10.3
				c-7.7-3.6-13.4-6.2-16-7.2c-1.5-0.6-1.2-1.8-0.8-2.6c-0.6,0.7-1.7,1.6-2.9,1.6c-1.1,0-1.5-0.3-1.6-0.6c-0.5,0.9-3.4,1.8-5.1,3.2
				c-1.2,0.9-1.9,0.4-2.2-0.2c0.2,0.7,0.5,1.8,0.2,2.8c-0.5,1.5-4.6,11.8-8.8,19c-2.6,4.6-7.9,4.8-11.8,3.2
				c-16.7,39.2,32.9,52.9,32.9,52.9s23.2-19.6,36.6-26.8c13.4-7.2,21.6-17,29.9-23.2c0.6-0.4,1.1-0.8,1.7-1.2
				C333,365.5,328.3,356.3,319.7,352.6z"/>
			<g>
				<path class="st3" d="M96,334.1c22.7,2.6,38.1,2.6,57.7,1.5c19.6-1,27.3-2.1,34-0.5c6.7,1.5,16.5-2.6,26.8-6.7
					c10.3-4.1,19-6.7,23.7-8.8c4.6-2.1,11.8-4.1,19.6,2.6c7.7,6.7,16,15.4,16,15.4l-14.9,8.8c0,0,17,8.2,25.2,13.4
					c8.2,5.1,13.4,8.2,18.5,10.8c5.1,2.6,11.3,5.1,14.4,8.8c3.1,3.6,7.2,8.8,4.1,12.9c-3.1,4.1-10.3,5.1-14.4,1.5s-9.8-5.1-12.9-7.2
					c-3.1-2.1-15.4-7.2-17-8.2c-1.5-1-3.6,0-1,2.1c2.6,2.1,8.2,5.1,14.4,10.3c6.2,5.1,9.3,6.2,11.3,6.7c2.1,0.5,5.1,9.8,0.5,13.9
					c-4.6,4.1-12.9,1.5-12.9,1.5s1.5,5.7-2.6,8.8c-4.1,3.1-9.8,1.5-9.8,1.5s1,7.2-6.2,7.7c-7.2,0.5-11.3-2.1-14.9-4.6
					c-3.6-2.6-51.5-25.2-59.2-30.4s-11.8-8.8-21.1-8.8c-9.3,0-79.3,6.2-79.3,6.2V334.1z"/>
				<path class="st4" d="M289.4,414.5c-0.1-1-0.3-1.7-0.3-1.7c-6.2-5.1-24.7-18-26.8-19c-2.1-1-4.6-1,1.5,3.1
					c6.2,4.1,19,12.4,22.1,14.9C287.4,412.9,288.5,413.8,289.4,414.5z"/>
				<path class="st4" d="M247.7,401.3c-2.6-1.5-3.1-1,3.1,3.6c4.4,3.3,18.4,14.4,26,20.3c0.1-1,0-1.8,0-2l-0.3-0.3
					C270.8,418.8,250.2,402.8,247.7,401.3z"/>
				<path class="st5" d="M301.8,397.5c1.5,6.3-4.1,13.3-10.2,15.8c2.8,0.4,7.3,0.6,10.4-2.1C306.4,407.4,303.8,398.8,301.8,397.5z"
					/>
				<path class="st5" d="M289.1,412.8C289.1,412.8,289.1,412.9,289.1,412.8l-0.5-0.4l-0.3,0.2c-0.2,6-6.6,9.4-13,8.8l-0.7,0.4
					l2.1,1.3c0,0,5.7,1.5,9.8-1.5C290.6,418.5,289.1,412.8,289.1,412.8z"/>
				<path class="st5" d="M309.9,374.3c5.3,4.2-0.7,16.9-11.9,14.5c2.8,1.3,6,2.7,8.6,5c4.1,3.6,11.3,2.6,14.4-1.5
					c3.1-4.1-1-9.3-4.1-12.9C315.2,377.4,312.7,375.8,309.9,374.3z"/>
				<path class="st4" d="M276.7,378.3c0,0,0.1,0,0.1,0.1c-3.3-3.7-5.6-9.6-6.3-10.4c-1-1,0.4,8.7,4.3,11.6c0,0,0,0,0,0
					C273.7,378.1,275.4,377.5,276.7,378.3z"/>
				<path class="st5" d="M270.6,430.9c5.4-0.4,6.2-4.5,6.2-6.5l-4.5-2.6c1.2,5.8-4.9,8.6-12.8,7
					C262.3,430.2,265.8,431.2,270.6,430.9z"/>
			</g>
			<g>
				<path class="st6" d="M414.7,294.2c0,0-78.5,20.3-88.8,24.5c-10.3,4.1-14.9,4.6-19,5.1c-4.1,0.5-6.2,0-10.3-1
					c-4.1-1-15.4-2.1-21.1-2.1c-5.7,0-11.3-4.1-18.5-3.1c-7.2,1-11.8,6.7-15.4,9.8c-3.6,3.1-13.9,8.2-16,11.8
					c-2.1,3.6-0.5,10.8-1,16c-0.5,5.1-3.1,10.8-1.5,15.4c1.5,4.6,12.4,8.2,16.5,1c4.1-7.2,8.2-17.5,8.8-19c0.5-1.5-0.5-3.6-0.5-3.6
					s0.5,2.6,2.6,1c2.1-1.5,5.7-2.6,5.1-3.6c0,0-0.5,1,1.5,1c2.1,0,3.6-2.6,3.6-2.6s-2.6,2.6,0,3.6c2.6,1,8.2,3.6,16,7.2
					c7.7,3.6,17.5,10.3,17.5,10.3s12.9-1.5,17-4.6c4.1-3.1,6.2-7.2,9.8-9.8c3.6-2.6,94.2-28.3,94.2-28.3L414.7,294.2z"/>
				<path class="st6" d="M260.5,427.8c-5.1,6.7-7.7,9.8-16,8.8c-8.2-1-9.8-8.8-7.7-12.9c2.1-4.1,9.8-19.6,9.8-19.6s7.2-5.1,9.3,3.1
					c2.1,8.2-0.5,18-0.5,18L260.5,427.8z"/>
				<path class="st7" d="M246.6,404.1c0,0-7.7,15.4-9.8,19.6c-1.3,2.7-1.2,6.8,1.4,9.7c8.6,4.6,15.6-2,17.2-8.2c0,0,2.6-9.8,0.5-18
					C253.8,398.9,246.6,404.1,246.6,404.1z"/>
				<path class="st8" d="M236.1,428.4c-6.4,3-12.1,1.4-15.2-2.2c-3.1-3.6-2.1-6.2-1.5-8.2c0.5-2.1,12.9-19.6,15.4-22.1
					c2.6-2.6,6.7-4.1,11.3-1c4.6,3.1,1.5,9.8,0.5,11.8C245.6,408.7,236.1,428.4,236.1,428.4z"/>
				<path class="st7" d="M219.3,418.5c-4.6,4.6-14.4,3.6-18.5-3.6c-4.1-7.2,3.6-14.4,5.7-18c2.1-3.6,12.4-16,22.1-12.9
					c9.8,3.1,3.9,14.6,3.9,14.6L219.3,418.5z"/>
				<path class="st6" d="M184.9,389.2c3.6-6.2,17,4.6,18,8.2s-5.1,10.8-12.4,10.3c-7.2-0.5-6.7-7.7-6.7-11.3
					S184.9,389.2,184.9,389.2z"/>
				<path class="st1" d="M202.9,397.4c-1-3.6-14.4-14.4-18-8.2c0,0-0.3,1-0.5,2.4c0.3,4.5,3.3,9.4,7.8,9.4c3.7,0,4.8,1,6.8,3.9
					C201.7,402.6,203.4,399.4,202.9,397.4z"/>
				<path class="st2" d="M260.3,345.1c2.1-3.1,0.5-4.6-0.5-7.7c-1-3.1,3.6-8.2,5.7-16.5l0,0c0.3-1.4-0.6-2.8-1.9-3
					c-2.1-0.4-4.2-0.6-6.6-0.3c-7.2,1-11.8,6.7-15.4,9.8c-3.6,3.1-13.9,8.2-16,11.8c-0.4,0.7-0.7,1.6-0.8,2.5
					c5.1-10.1,18.6-0.2,23.2,8.1c0,0.1,0.1,0.2,0.1,0.2c0-0.1,0-0.1-0.1-0.2c0.4,0.6,1,1.1,2.2,0.2c1.8-1.3,4.6-2.3,5.1-3.2
					c0.1,0.3,0.5,0.6,1.6,0.6c1.2,0,2.2-0.9,2.9-1.6c0,0,0,0.1-0.1,0.1C259.9,345.7,260.1,345.4,260.3,345.1z"/>
				<path class="st9" d="M316.1,340.3c2.4,6,2.3,9.2,3.5,12.2c0.4-0.3,0.7-0.6,1.1-0.9c3.6-2.6,94.2-28.3,94.2-28.3l-0.3-29.1
					c0,0-78.5,20.3-88.8,24.5c-10.3,4.1-14.9,4.6-19,5.1c-3.2,0.4-5.1,0.2-7.8-0.4l0,0C316.6,327.4,311.5,328.9,316.1,340.3z"/>
				<path class="st10" d="M243,415.9c0,3.1,5.1,2.6,5.1,2.6l5.1-7.7c0,0-2.1-2.6-4.1-3.1c-2.1-0.5-3.1,0-3.1,0L243,415.9z"/>
				<path class="st10" d="M243,397.9c-2.9-2.2-4.6-2.6-4.6-2.6s-6.7,6.7-4.1,10.3c2.6,3.6,8.2-0.5,9.3-2.1c1-1.5,2.1-3.1,2.1-3.1
					S245.1,399.5,243,397.9z"/>
				<path class="st10" d="M227.6,388.6c-3.3-1.1-7.2-1.5-7.2-1.5s-5.7,6.2-5.1,9.8c0.5,3.6,7.3,7.6,10.8,3.8
					c3.6-3.8,6.7-8.4,6.7-8.4S230.7,389.7,227.6,388.6z"/>
				<path class="st10" d="M192.1,401c-3.4,0-5.9-2.8-7.1-6.1c-0.5,1.6-0.6,3.4,0.4,4.6c2.1,2.6,6,4.1,7.6,1.6
					C192.7,401,192.4,401,192.1,401z"/>
				<path class="st10" d="M222.7,370.4c5.1,2.6,11.3-4.1,11.3-4.1s4.1-10.8-3.6-11.3C222.7,354.4,222.7,370.4,222.7,370.4z"/>
			</g>
		</g>
		<g class="st11">
			<path class="st12" d="M260.5,347.3c10.7-4.4,18.9-19.3,16.8-22.9"/>
			<path class="st12" d="M264.4,324.4c-0.4,8.7-6,8.2-4.5,12.9c1.5,4.6,1.5,7.4-0.3,9.6"/>
			<path class="st12" d="M310.8,345.5c-1,10.3-18.7,18-18.7,18"/>
			<path class="st12" d="M245.2,342.6c5.1,2.1,5.1,7.2,5.1,7.2"/>
			<path class="st12" d="M244.5,338.8c6.7,1,7.2,7.2,7.2,7.2"/>
			<path class="st12" d="M283.8,322.2c6.9,3.8,3.8,18.7-8.5,25.9"/>
		</g>
		<path class="st13" d="M268.4,382.9c3.2,3.5-1.4,4.8-8.5,5.2c-7.1,0.4-9.2-7.6-4.6-8.2C262.5,378.9,265.6,379.8,268.4,382.9z"/>
		<path class="st13" d="M277,364.6c2.5,0.4,0.8-2.1-3.3-6.2c-4.2-4.2-10.9-0.9-10.8,1.2c0.1,4.4,6.8,3.3,9.4,4.4
			C274.8,365,277,364.6,277,364.6z"/>
	</g>
	<g>
		
			<rect x="337.8" y="305.7" transform="matrix(0.9612 -0.2758 0.2758 0.9612 -81.0556 108.9283)" class="st14" width="17.9" height="74"/>
		<polygon class="st15" points="512,332.2 365,373.9 345.7,306.5 512,258.2 		"/>
	</g>
	<g>
		
			<rect x="153.3" y="325.5" transform="matrix(-1 3.575003e-03 -3.575003e-03 -1 325.7027 724.4029)" class="st14" width="17.9" height="74"/>
		<polygon class="st16" points="0,328.3 153.1,327.4 153.4,397.6 0,398.7 		"/>
	</g>
</g>
<g>
	<path class="st17" d="M256,50.8c45.6,0,82.6,37,82.6,82.6S301.6,216,256,216s-82.6-37-82.6-82.6l0,0c-0.1-45.5,36.6-82.4,82.1-82.6
		C255.7,50.8,255.8,50.8,256,50.8z"/>
	<polygon class="st14" points="301.8,110.6 243.1,169.3 210.3,136.7 223.6,123.5 243.1,142.8 288.4,97.5 	"/>
</g>
<path class="st18" d="M344.8,176.6v1.9h3.8v-1.9c0-5.4,4.2-9.6,9.6-9.6v-3.8c-5.4,0-9.6-4.2-9.6-9.6v-1.9h-3.8v1.9
	c0,5.4-4.2,9.6-9.6,9.6v3.8C340.6,167,344.8,171.2,344.8,176.6z M346.8,160.5c1.2,1.9,2.7,3.5,4.6,4.6c-1.9,1.2-3.5,2.7-4.6,4.6
	c-1.2-1.9-2.7-3.5-4.6-4.6C344.1,163.9,345.6,162.4,346.8,160.5z"/>
<path class="st18" d="M175.9,84v2.7h5.5V84c0-7.7,6-13.7,13.7-13.7v-5.5c-7.7,0-13.7-6-13.7-13.7v-2.7h-5.5V51
	c0,7.7-6,13.7-13.7,13.7v5.5C169.9,70.2,175.9,76.3,175.9,84z M178.7,60.9c1.6,2.7,3.8,4.9,6.6,6.6c-2.7,1.6-4.9,3.8-6.6,6.6
	c-1.6-2.7-3.8-4.9-6.6-6.6C174.8,65.8,177,63.6,178.7,60.9z"/>
<path class="st18" d="M317.8,180.3v-2.9H312v2.9c0,8.1-6.3,14.4-14.4,14.4v5.8c8.1,0,14.4,6.3,14.4,14.4v2.9h5.8v-2.9
	c0-8.1,6.3-14.4,14.4-14.4v-5.8C324.2,194.7,317.8,188.3,317.8,180.3z M314.9,204.5c-1.7-2.9-4-5.2-6.9-6.9c2.9-1.7,5.2-4,6.9-6.9
	c1.7,2.9,4,5.2,6.9,6.9C319,199.3,316.7,201.6,314.9,204.5z"/>
<path class="st18" d="M349.9,210v1.5h3V210c0-4.2,3.3-7.5,7.5-7.5v-3c-4.2,0-7.5-3.3-7.5-7.5v-1.5h-3v1.5c0,4.2-3.3,7.5-7.5,7.5v3
	C346.6,202.6,349.9,205.9,349.9,210z M351.4,197.5c0.9,1.5,2.1,2.7,3.6,3.6c-1.5,0.9-2.7,2.1-3.6,3.6c-0.9-1.5-2.1-2.7-3.6-3.6
	C349.3,200.2,350.5,199,351.4,197.5z"/>
</svg>
