<svg id="Layer_1" data-name="Layer 1" xmlns="http://www.w3.org/2000/svg" viewBox="0 0 70.39 17.98"><defs><style>.cls-1{fill:#000;}.cls-2{fill:#fbd556;}</style></defs><title>logo-ruangkita</title><circle class="cls-1" cx="8.99" cy="8.99" r="8.99"/><path class="cls-2" d="M12.39,36.86a1.1,1.1,0,0,1-.49.91l-.5.33c-.14.09-.27.19-.4.29l-.12.07c-.07,0-.07.07,0,.11l.37.22.49.3.32.23a1,1,0,0,1,.35.67,1.08,1.08,0,0,1-.91,1.2,1,1,0,0,1-.72-.15l-.61-.37-.6-.37-1-.68-.32-.21A1.1,1.1,0,0,1,8,37.83a1.83,1.83,0,0,1,.36-.32c.44-.32.91-.59,1.36-.89l.43-.31c.2-.13.4-.27.61-.39a1,1,0,0,1,1.12,0,1,1,0,0,1,.48.76A.71.71,0,0,1,12.39,36.86Z" transform="translate(-1.2 -26.36)"/><path class="cls-2" d="M7.51,34.7v2.06c0,1,0,2,0,3v1.64s0,0,0,0l1.7,0h.09a.19.19,0,0,1,.17.17.18.18,0,0,1-.14.19,1,1,0,0,1-.17,0H7.25a.18.18,0,0,1-.16-.22.41.41,0,0,0,0-.11c0-1.28,0-2.56,0-3.84s0-2.56,0-3.84c0-1.06,0-2.12,0-3.18s0-1.88,0-2.83a.2.2,0,0,1,.22-.21H9.54l2.21,0H13a.19.19,0,0,1,.15.25v.07s0,.09,0,.13c0,.51,0,1,0,1.54,0,.82,0,1.65,0,2.48s0,2,0,2.94,0,1.7,0,2.55l0,3.3v.61a.22.22,0,0,0,0,.08.19.19,0,0,1-.19.27h-1l-1.73,0a.08.08,0,0,0-.07,0c-.2.3-.4.6-.59.9a.26.26,0,0,1-.12.11.19.19,0,0,1-.24-.25.67.67,0,0,1,.09-.14l.6-.92a.24.24,0,0,1,.21-.12h1.08l1.55,0c.06,0,.06,0,.06-.06,0-1,0-1.95,0-2.92s0-1.81,0-2.72c0-1.14,0-2.29,0-3.43,0-.84,0-1.67,0-2.51,0-.58,0-1.17,0-1.76,0-.06,0-.06-.06-.06L9.55,28l-2,0s0,0,0,.05c0,.81,0,1.63,0,2.44,0,1.26,0,2.52,0,3.77v.48Z" transform="translate(-1.2 -26.36)"/><path class="cls-2" d="M11.25,35.39a1,1,0,0,1-1-.6l-.17-.36c-.06-.13-.13-.25-.2-.38a2,2,0,0,0-.45-.46,1.14,1.14,0,0,0-.38-.23,2.44,2.44,0,0,0-.26-.06A1,1,0,0,1,8,32.76a1.07,1.07,0,0,1,.25-1.37,1.09,1.09,0,0,1,.85-.23,3.54,3.54,0,0,1,.45.08,3.26,3.26,0,0,1,1,.46,3.86,3.86,0,0,1,.58.49,3.2,3.2,0,0,1,.27.25,3.52,3.52,0,0,1,.36.5,7.17,7.17,0,0,1,.48,1,1.08,1.08,0,0,1-.93,1.49Z" transform="translate(-1.2 -26.36)"/><path class="cls-2" d="M9.65,28.35l.53,0h.29l.46,0c.13,0,.27,0,.4,0a1.06,1.06,0,0,1,.89.79,1.08,1.08,0,0,1-.84,1.34,2.47,2.47,0,0,1-.47,0l-.65,0-.56,0c-.24,0-.47,0-.7,0a1.08,1.08,0,0,1-.29-2.14l.45,0Z" transform="translate(-1.2 -26.36)"/><path class="cls-1" d="M30.64,37.27a5.59,5.59,0,0,0,.27-1.05c.07-.85.08-1.71.12-2.56a4.12,4.12,0,0,1,0-.7,1,1,0,0,1,1-.8,1.1,1.1,0,0,1,1.06.73,1,1,0,0,1,.05.23,11.82,11.82,0,0,1-.46,4.8,2.35,2.35,0,0,1-2,1.73,2.11,2.11,0,0,1-2.22-1.31,8.3,8.3,0,0,1-.68-2.9,17.34,17.34,0,0,1,0-2.39A1,1,0,0,1,29,32a1.08,1.08,0,0,1,1,1.18,12.27,12.27,0,0,0,.28,3.42c.06.23.13.46.2.7Z" transform="translate(-1.2 -26.36)"/><path class="cls-1" d="M45.76,35.82a4.77,4.77,0,0,1,.87-3.15,3.62,3.62,0,0,1,1.79-1.2,1.88,1.88,0,0,1,.67,0,1,1,0,0,1,.85.86,1,1,0,0,1-.67,1,1.81,1.81,0,0,0-1.51,2,9.53,9.53,0,0,0,.08,1.41,1.58,1.58,0,0,0,.19.64.61.61,0,0,0,.41.23c.05,0,.19-.2.21-.32a1.06,1.06,0,0,0-.16-.92.94.94,0,0,1,.71-1.5,3.72,3.72,0,0,1,.94.06,1,1,0,0,1,.69,1.3,3.23,3.23,0,0,0-.16.81,3.5,3.5,0,0,1-.49,1.73,1.7,1.7,0,0,1-1.31.85,2.45,2.45,0,0,1-2.71-1.54,6.85,6.85,0,0,1-.29-1.1C45.81,36.62,45.8,36.25,45.76,35.82Z" transform="translate(-1.2 -26.36)"/><path class="cls-1" d="M36.13,36.78c-.17.45-.33.9-.52,1.34a6.08,6.08,0,0,1-.49,1,1.07,1.07,0,0,1-1.44.41,1.11,1.11,0,0,1-.47-1.45l2-4.92a1.16,1.16,0,0,1,1.13-.85,1.14,1.14,0,0,1,1.13.89c.4,1.31.77,2.63,1.16,4,.12.38.28.75.42,1.13a1.1,1.1,0,0,1-.51,1.41,1.09,1.09,0,0,1-1.44-.43,4.08,4.08,0,0,1-.35-.73c-.16-.48-.3-1-.45-1.45l-.09-.28Z" transform="translate(-1.2 -26.36)"/><path class="cls-1" d="M41.89,37.21c0,.22,0,.43,0,.65a2.73,2.73,0,0,1-.06.76,1,1,0,0,1-1,.7,1.07,1.07,0,0,1-1-.77,5.23,5.23,0,0,1-.13-.87c-.07-1.38-.14-2.76-.19-4.14a1.12,1.12,0,0,1,2.06-.75c1,1.39,2,2.8,3,4.21a2.59,2.59,0,0,1,.26.46A1.09,1.09,0,0,1,43,38.59c-.28-.38-.53-.78-.8-1.17l-.2-.24Z" transform="translate(-1.2 -26.36)"/><path class="cls-1" d="M68.86,36.76c-.26.55-.52,1.11-.79,1.66a1.13,1.13,0,0,1-1,.69,1,1,0,0,1-1-.56,1.25,1.25,0,0,1,0-1.2c.25-.54.51-1.07.78-1.6.41-.83.81-1.65,1.24-2.47a2,2,0,0,1,.52-.64,1.13,1.13,0,0,1,1.71.51,3.74,3.74,0,0,1,.23.74c.31,1.24.61,2.48.9,3.73a2,2,0,0,1,.06.76,1,1,0,0,1-.93.84,1,1,0,0,1-1.11-.65c-.18-.46-.3-.94-.45-1.41,0-.13-.08-.25-.11-.38Z" transform="translate(-1.2 -26.36)"/><path class="cls-1" d="M55.5,35.59l1.56,1.19a5.6,5.6,0,0,1,.52.42,1.09,1.09,0,0,1,.14,1.5,1.07,1.07,0,0,1-1.51.19c-.68-.49-1.34-1-2-1.53-.33-.25-.65-.51-1-.77a1.23,1.23,0,0,1,0-2c.89-.76,1.77-1.55,2.65-2.33a4.47,4.47,0,0,1,.41-.35,1.09,1.09,0,0,1,1.41,1.66c-.63.61-1.28,1.19-1.93,1.79Z" transform="translate(-1.2 -26.36)"/><path class="cls-1" d="M23.39,34.76A3.78,3.78,0,0,1,26.65,37,5.27,5.27,0,0,1,27,38a1.07,1.07,0,0,1-.68,1.33A1.09,1.09,0,0,1,25,38.68c-.11-.22-.18-.46-.28-.68a1.58,1.58,0,0,0-1.56-1,1.1,1.1,0,0,1-1.07-1.63A1.37,1.37,0,0,1,23.39,34.76Z" transform="translate(-1.2 -26.36)"/><path class="cls-1" d="M60.85,35.56c0,.66,0,1.32,0,2a1.09,1.09,0,0,1-1.74.89,1.12,1.12,0,0,1-.44-.84c0-.37,0-.74,0-1.11,0-1,.06-2,.09-3.06a1.06,1.06,0,0,1,.66-1,1,1,0,0,1,1.13.17,1.21,1.21,0,0,1,.41,1c0,.66,0,1.33,0,2Z" transform="translate(-1.2 -26.36)"/><path class="cls-1" d="M64.15,34.17H62.83a1.11,1.11,0,0,1-1.16-1,1.05,1.05,0,0,1,1-1.14,27.1,27.1,0,0,1,3,0,1,1,0,0,1,1,1.14,1.09,1.09,0,0,1-1.1,1c-.45,0-.91,0-1.37,0Z" transform="translate(-1.2 -26.36)"/><path class="cls-1" d="M24.45,31.9H25.6a1.1,1.1,0,0,1,1.13,1,1.08,1.08,0,0,1-.9,1.22l-.1,0c-.89,0-1.78,0-2.66-.05a1,1,0,0,1-.8-1.57,1.07,1.07,0,0,1,1-.58h1.21Z" transform="translate(-1.2 -26.36)"/><path class="cls-1" d="M65.27,36.64c0,.25,0,.58-.11.91a1.06,1.06,0,0,1-1.09.94,1.08,1.08,0,0,1-1.06-1,6.46,6.46,0,0,1,.06-1.07,1.1,1.1,0,0,1,1.16-1.09C64.87,35.34,65.29,35.84,65.27,36.64Z" transform="translate(-1.2 -26.36)"/><path class="cls-1" d="M42.83,33.06a1.09,1.09,0,1,1,1.05,1.1A1.08,1.08,0,0,1,42.83,33.06Z" transform="translate(-1.2 -26.36)"/></svg>
