<svg id="Layer_1" data-name="Layer 1" xmlns="http://www.w3.org/2000/svg" viewBox="0 0 511.44 100.54"><defs><style>.cls-1{fill:#fbd558;}.cls-2{fill:#010101;}</style></defs><title>ruangkitatokologo</title><path class="cls-1" d="M252.88,38.17l0,26.65c0,1.33-.06,16.7,0,19.28a1.52,1.52,0,0,0,1.61,1.45s15.09,1.82,20.12,1.82c5.45,0,21.79-2,21.79-2V45.57C279.37,49.51,254.53,39.29,252.88,38.17Z" transform="translate(-41.05 -4.01)"/><path class="cls-2" d="M305.72,24.61a13.81,13.81,0,0,0-8.89-2,21.29,21.29,0,0,0-9.72-15l0,0-.8-.5-.09,0-.76-.42-.16-.08c-.24-.13-.48-.25-.73-.36l-.22-.1-.68-.31-.29-.11-.64-.25-.35-.13-.59-.2L281.34,5l-.54-.16c-.16,0-.33-.08-.49-.12l-.5-.13-.56-.11c-.15,0-.29-.07-.44-.09l-.64-.1c-.13,0-.25,0-.38-.06s-.47-.06-.7-.08l-.34,0-.83-.06h-.22c-.35,0-.71,0-1.07,0h0c-.35,0-.71,0-1.06,0h-.22c-.28,0-.56,0-.83.06l-.34,0c-.24,0-.47,0-.7.08l-.39.06-.63.1c-.15,0-.3.06-.44.09l-.57.11-.5.13-.48.12-.55.16-.42.13-.6.2-.35.13-.64.25-.29.11-.68.31-.22.1c-.24.11-.48.24-.72.36l-.16.08-.77.42-.09,0-.8.5,0,0a21.32,21.32,0,0,0-9.72,15c-5.69-1-9.34,2.11-11.49,4.1-2.68,2.47-3.54,7.25-3.54,8.13V87.72c.22,8.56,7.14,11.66,10.22,12.57,0,0,18.42,4.26,27,4.26s20.47-2.61,27.13-4.29a13.28,13.28,0,0,0,10.11-12.19V35.29A13.8,13.8,0,0,0,305.72,24.61Zm-41.78-1.06c.67-5.38,2.54-6.11,3.26-6.54l.06,0,.62-.28.11-.05.58-.23.18-.06.53-.19.25-.07L270,16l.32-.08.42-.1.37-.08.39-.08.41-.06.35-.06.49-.06.29,0,.62,0h.17l.8,0,.8,0h.18l.61,0,.29,0,.49.06.35.06.42.06.39.08.36.08.43.11.31.07.48.15.25.07.53.19.18.06.57.23.12.05L282,17l.05,0c.87.59,2.6,1.1,3.27,6.54-4.82.67-4.59,1.17-10.7,1.24S268.75,24.22,263.94,23.55ZM252.88,83.47V38.17c11,3.11,12.12,4.1,21.75,4,9.64.09,10.72-.9,21.75-4l.14,45.3s-16.41,3.9-21.89,3.9S252.88,83.47,252.88,83.47Z" transform="translate(-41.05 -4.01)"/><path class="cls-2" d="M519,71.88c-3.25,6.8-6.46,13.63-9.77,20.4-2.48,5.09-6.4,8.29-12.27,8.42A12.69,12.69,0,0,1,485,93.84c-2.79-4.9-1.88-9.91.37-14.71C488.5,72.51,491.74,66,495,59.4c5-10.13,10-20.3,15.28-30.29a23.76,23.76,0,0,1,6.43-7.89c7.29-5.35,16.87-2.39,21,6.32a46.49,46.49,0,0,1,2.78,9.07c3.75,15.26,7.49,30.52,11,45.82a25.5,25.5,0,0,1,.76,9.33c-.83,5.62-5.77,9.7-11.45,10.37a12.93,12.93,0,0,1-13.65-8c-2.21-5.63-3.73-11.53-5.55-17.32-.48-1.55-.92-3.11-1.38-4.66Z" transform="translate(-41.05 -4.01)"/><path class="cls-2" d="M369.31,57.43c6.78,5.17,13,9.9,19.24,14.68a68.88,68.88,0,0,1,6.43,5.2c5.42,5.32,6,12.86,1.67,18.35-4.52,5.7-12.18,6.94-18.54,2.39-8.41-6-16.52-12.46-24.72-18.77-4.05-3.11-8-6.32-12-9.53-8.64-7-8.45-17.67,0-24.84,11-9.36,21.78-19.07,32.66-28.63a55.08,55.08,0,0,1,5-4.29c6.22-4.26,13.8-3.37,18.31,2a13.2,13.2,0,0,1-1.05,18.36c-7.7,7.52-15.72,14.69-23.61,22C371.83,55.19,370.91,56,369.31,57.43Z" transform="translate(-41.05 -4.01)"/><path class="cls-2" d="M431,81.47c-.08,5.57-2.61,9.85-7.71,12.26a12.74,12.74,0,0,1-13.68-1.37,13.4,13.4,0,0,1-5.45-10.28c-.35-4.53-.53-9.09-.43-13.63.25-12.55.66-25.09,1.05-37.63.18-5.75,2.77-10.12,8.08-12.44a12.69,12.69,0,0,1,14,2.07c3.78,3.16,5,7.51,5,12.22C431.9,40.81,431.09,73.34,431,81.47Z" transform="translate(-41.05 -4.01)"/><path class="cls-2" d="M467.29,40c-5.37,0-10.74.06-16.11,0-8-.12-13.77-5.33-14.27-12.66a12.9,12.9,0,0,1,12.27-14,340.92,340.92,0,0,1,36.73.11c7.47.42,12.26,7,11.79,14S491.76,39.74,484.24,40c-5.64.21-11.3,0-16.95,0Z" transform="translate(-41.05 -4.01)"/><path class="cls-2" d="M481.1,70.38c-.34,3-.59,7.17-1.28,11.24-1.2,7.08-6.75,11.66-13.51,11.46a13.13,13.13,0,0,1-12.95-12.56,76.39,76.39,0,0,1,.73-13.15c1-8.61,6.72-13.92,14.3-13.46C476.19,54.38,481.32,60.58,481.1,70.38Z" transform="translate(-41.05 -4.01)"/><path class="cls-2" d="M165.1,41.24a65.75,65.75,0,0,0-1.83-11.94c-3-11.62-11.89-17.66-22.71-19a10.1,10.1,0,0,0-2-.42,18.34,18.34,0,0,0-7.05.49,37.93,37.93,0,0,0-19,12.65c-8,10.06-9.34,21.8-9.23,33.39.4,4.53.47,8.49,1.15,12.33a65,65,0,0,0,3.09,11.68,24,24,0,0,0,15.17,14.91,9.72,9.72,0,0,0,2.22.77,26.6,26.6,0,0,0,2.7.4,35.23,35.23,0,0,0,8.55.2c5.9-.55,14.93-8,18.38-12.94,4.25-6,9.24-18.64,10.36-30.18C165,49.08,165.36,45.14,165.1,41.24ZM127.36,73a16.92,16.92,0,0,1-2.09-6.74,109.69,109.69,0,0,1-.8-14.93c.42-12.14,3.46-16.74,13.88-20.72a5.06,5.06,0,0,0,.73-.12c2.64-.66,3.08,2.73,3.7,4.08a16.8,16.8,0,0,1,1.36,6.92,109.34,109.34,0,0,1-.79,14.93c-1.58,11.09-4.7,15.57-13.63,18.43A5.19,5.19,0,0,1,127.36,73Z" transform="translate(-41.05 -4.01)"/><path class="cls-2" d="M71.46,40.94c-5.37,0-10.74.06-16.11,0-8-.12-13.77-5.34-14.27-12.66a12.89,12.89,0,0,1,12.28-14,338.19,338.19,0,0,1,36.72.11c7.47.42,12.26,7,11.79,14s-5.94,12.3-13.45,12.58c-5.65.21-11.3,0-17,0Z" transform="translate(-41.05 -4.01)"/><path class="cls-2" d="M85.27,71.28c-.33,3-.59,7.17-1.28,11.24C82.79,89.6,77.24,94.17,70.48,94a13.14,13.14,0,0,1-13-12.56,77.41,77.41,0,0,1,.73-13.15c1-8.61,6.72-13.92,14.3-13.46C80.36,55.28,85.49,61.48,85.27,71.28Z" transform="translate(-41.05 -4.01)"/><path class="cls-2" d="M202.86,58.51c6.78,5.17,13,9.9,19.24,14.68a67.3,67.3,0,0,1,6.43,5.2c5.43,5.32,6,12.86,1.67,18.35-4.52,5.7-12.18,6.94-18.53,2.39-8.41-6-16.53-12.46-24.73-18.77-4-3.11-8-6.32-12-9.53-8.65-7-8.46-17.67,0-24.84,11-9.36,21.79-19.07,32.66-28.63a55.08,55.08,0,0,1,5-4.29c6.22-4.26,13.8-3.37,18.31,2a13.2,13.2,0,0,1-1.05,18.37c-7.7,7.52-15.72,14.69-23.61,22C205.39,56.27,204.47,57.07,202.86,58.51Z" transform="translate(-41.05 -4.01)"/><path class="cls-2" d="M280,70a2.61,2.61,0,0,1-1.18,2.18c-.4.28-.81.53-1.21.8s-.65.47-1,.71l-.28.17c-.16.1-.16.15,0,.25l.89.53,1.16.74a8.57,8.57,0,0,1,.79.55,2.4,2.4,0,0,1,.84,1.6,2.58,2.58,0,0,1-2.19,2.89,2.55,2.55,0,0,1-1.75-.35c-.49-.29-1-.6-1.45-.9s-1-.58-1.45-.89c-.81-.53-1.6-1.08-2.4-1.62-.27-.18-.54-.34-.8-.52a2.65,2.65,0,0,1-.55-3.8,4.35,4.35,0,0,1,.88-.77c1.05-.77,2.18-1.42,3.27-2.14.36-.24.69-.51,1-.75a17.42,17.42,0,0,1,1.47-.94A2.6,2.6,0,0,1,280,69.71C280,69.82,280,69.94,280,70Z" transform="translate(-41.05 -4.01)"/><path class="cls-2" d="M268.24,64.83v5c0,2.4,0,4.79,0,7.19,0,1.32,0,2.64,0,4,0,.11,0,.12.12.11l4.1,0h.22a.44.44,0,0,1,.4.41.43.43,0,0,1-.34.47,1.75,1.75,0,0,1-.4,0l-4.38,0a2.62,2.62,0,0,1-.28,0,.45.45,0,0,1-.39-.54l0-.26c0-3.09,0-6.17,0-9.26s0-6.16,0-9.25c0-2.55,0-5.11,0-7.66l0-6.8a.49.49,0,0,1,.53-.52l5.17,0,5.33,0,2.84,0h.22a.45.45,0,0,1,.37.6.48.48,0,0,0,0,.17c0,.1,0,.2,0,.3l0,3.7c0,2,0,4,0,6,0,2.36,0,4.72,0,7.08q0,3.07,0,6.15l.06,8c0,.49,0,1,0,1.46a1.23,1.23,0,0,0,0,.19.45.45,0,0,1-.46.64l-2.5,0-4.17,0a.19.19,0,0,0-.18.09c-.47.73-.94,1.45-1.42,2.17a.57.57,0,0,1-.27.26.46.46,0,0,1-.49-.09.45.45,0,0,1-.1-.5,4.05,4.05,0,0,1,.21-.35l1.45-2.21a.58.58,0,0,1,.52-.28l2.58,0,3.74,0c.15,0,.15,0,.15-.16,0-2.34,0-4.68-.05-7,0-2.18,0-4.36,0-6.54l-.06-8.28c0-2,0-4,0-6l0-4.25c0-.14,0-.14-.15-.15l-7.67,0-4.7,0c-.09,0-.12,0-.12.12l0,5.88c0,3,0,6.06,0,9.09v1.14Z" transform="translate(-41.05 -4.01)"/><path class="cls-2" d="M277.26,66.51A2.61,2.61,0,0,1,274.91,65c-.14-.28-.25-.57-.39-.86s-.33-.6-.5-.9a4.64,4.64,0,0,0-1.08-1.13,2.92,2.92,0,0,0-.91-.55,4.89,4.89,0,0,0-.64-.14,2.6,2.6,0,1,1,.76-5.15,9.73,9.73,0,0,1,1.08.18,8.2,8.2,0,0,1,2.37,1.13A10.3,10.3,0,0,1,277,58.78c.22.2.45.39.65.61a6.54,6.54,0,0,1,.86,1.22,15,15,0,0,1,1.16,2.3,2.62,2.62,0,0,1-2.23,3.59Z" transform="translate(-41.05 -4.01)"/><path class="cls-2" d="M273.39,49.54l1.28.06h.7l1.1.07c.33,0,.66,0,1,.06a2.51,2.51,0,0,1,2.13,1.89,2.59,2.59,0,0,1-2,3.23,5.32,5.32,0,0,1-1.13,0l-1.56-.07c-.45,0-.91-.06-1.36,0s-1.12,0-1.67.07a2.6,2.6,0,0,1-.69-5.16,9.52,9.52,0,0,1,1.06-.11Z" transform="translate(-41.05 -4.01)"/></svg>