<?xml version="1.0" encoding="utf-8"?>
<!-- Generator: Adobe Illustrator 22.0.0, SVG Export Plug-In . SVG Version: 6.00 Build 0)  -->
<svg version="1.1" id="Layer_1" xmlns="http://www.w3.org/2000/svg" xmlns:xlink="http://www.w3.org/1999/xlink" x="0px" y="0px"
	 viewBox="0 0 595.3 595.3" style="enable-background:new 0 0 595.3 595.3;" xml:space="preserve">
<style type="text/css">
	.st0{fill:#2F2D51;}
</style>
<path class="st0" d="M380.2,362c-0.5,15.1-7,26.4-18.8,35c-6.5,4.3-12.9,8.6-19.4,12.9c-5.4,3.8-10.2,7.5-15.6,11.3
	c-1.6,1.1-3.2,2.2-4.3,2.7c-2.2,1.6-2.2,2.2,0,3.8c4.8,2.7,9.7,5.4,14.5,8.6c6.5,3.8,12.4,8.1,18.8,11.8c4.3,2.7,8.6,5.4,12.4,8.6
	c10.8,9.7,15.1,21.5,13.4,36c-2.2,18.8-16.7,32.8-35,35.5c-9.7,1.6-19.4-0.5-28-5.4c-7.5-4.8-15.6-9.7-23.1-14.5
	c-7.5-4.8-15.6-9.1-23.7-14.5c-12.9-8.6-25.3-17.2-38.2-25.8c-4.3-2.7-8.6-5.4-12.4-8.1c-19.9-14-23.7-41.4-8.6-60.8
	c3.8-4.8,9.1-8.6,14-12.4c16.7-12.4,35-22.6,52.2-34.4c5.9-3.8,10.8-8.1,16.7-11.8c7.5-5.4,15.1-10.2,23.1-15.1
	c14.5-8.1,29-7.5,43,1.1c10.8,7,16.7,16.7,18.3,29.6C380.2,358.2,380.2,360.4,380.2,362z"/>
<path class="st0" d="M193,278.6c0,26.4,0,52.7,0,79.1c0,38.2-0.5,76.4-0.5,114.6c0,21,0,42-0.5,62.9c0,1.6,0.5,2.2,2.2,1.6
	c22.1-0.5,43.6-0.5,65.6-0.5c1.1,0,2.2,0,3.8,0c3.2,0.5,5.9,3.2,6.5,6.5c0,3.8-2.2,7-5.4,7.5c-2.2,0.5-4.3,0.5-6.5,0.5
	c-23.1,0-46.8,0.5-69.9,0.5c-1.6,0-2.7,0-4.3,0c-4.3-0.5-7-4.3-6.5-8.6c0-1.1,0.5-2.7,0.5-3.8c0-49.5,0.5-98.4,0.5-147.9
	c0-49,0.5-98.4,0.5-147.4c0-40.9,0.5-81.2,0.5-122.1c0-36,0.5-72.1,0.5-108.7c0-5.4,3.2-8.6,8.6-8.6c26.9,0,53.8,0.5,80.7,0.5
	c22.1,0,44.1,0.5,66.2,0.5c22.1,0,43.6,0.5,65.6,0.5c1.1,0,2.2,0,3.2,0c4.8,0.5,7.5,4.8,5.9,9.7c0,1.1,0,1.6,0,2.7
	c0,1.6,0.5,3.2,0.5,4.8c0,19.9,0.5,39.3,0.5,59.2c0,31.7,0.5,63.5,0.5,95.2c0,37.7,0.5,75.3,0.5,113c0,32.8,0.5,65.6,0.5,97.9
	c0.5,42.5,0.5,84.5,1.1,126.9c0,7.5,0,15.6,0,23.1c0,1.1,0,2.2,0.5,2.7c1.6,5.9-1.1,10.2-7.5,10.2c-13.4,0-26.9,0.5-39.8,0.5
	c-22.1,0.5-44.1,0.5-66.2,0.5c-1.1,0-2.2,0.5-2.7,1.6c-7.5,11.3-15.1,23.1-22.6,34.4c-1.1,1.6-2.2,3.2-4.3,4.3
	c-2.7,1.1-5.9,0.5-8.1-1.6s-2.7-4.8-1.6-8.1c1.1-2.2,2.2-3.8,3.2-5.4c7.5-11.8,15.6-23.7,23.1-35c2.2-3.2,4.8-4.3,8.6-4.3
	c14,0,27.4-0.5,41.4-0.5c19.9,0,39.8-0.5,59.7-0.5c2.7,0,2.7,0,2.7-2.7c0-37.1-0.5-74.8-0.5-111.9c0-35-0.5-69.9-0.5-104.4
	c-0.5-44.1-0.5-88.2-1.1-131.8c0-32.3-0.5-64-0.5-96.3c0-22.6-0.5-45.2-0.5-67.8c0-2.2,0-2.2-2.2-2.2c-44.1-0.5-88.2-0.5-132.3-1.1
	c-21.5,0-43.6-0.5-65.1-0.5c-1.6,0-2.2,0.5-2.2,1.6c0,31.7,0,63.5-0.5,95.2c0,47.9-0.5,95.8-0.5,143.1
	C193,266.8,193,272.7,193,278.6L193,278.6z"/>
<path class="st0" d="M336.6,305.5c-17.8-1.1-31.2-9.1-38.2-25.8c-3.8-8.6-8.1-16.7-12.9-25.3c-2.2-3.8-4.8-7-8.1-9.7
	c-4.3-3.8-8.1-7.5-12.4-10.8c-6.5-5.4-14-8.1-22.6-9.1c-13.4-2.2-23.7-8.6-30.1-20.4c-10.2-17.8-5.9-39.8,9.7-52.7
	c9.7-8.1,20.4-10.8,32.8-9.1c5.9,0.5,11.8,1.6,17.2,2.7c13.4,3.8,25.8,10.2,37.7,18.3c8.1,5.4,15.1,11.8,22.1,18.3
	c3.2,3.2,7,5.9,10.2,9.7c5.4,5.9,9.7,12.9,14,19.4c7,11.8,13.4,23.7,18.3,36.6c4.8,13.4,4.3,26.9-3.8,38.7
	c-7.5,11.3-18.3,17.2-31.7,18.3C338.3,305.5,337.7,305.5,336.6,305.5z"/>
<path class="st0" d="M273.2,34.9c7.5,0.5,14.5,0.5,22.1,1.1c3.8,0,7.5,0,11.3,0c5.9,0,11.8,0.5,17.8,1.1c5.4,0.5,10.8,0,15.6,1.1
	c17.2,3.2,29,12.9,33.9,30.1c6.5,23.1-8.6,47.3-32.3,51.6c-5.9,1.1-11.8,0.5-17.8,0.5c-8.1-0.5-16.7-0.5-24.7-1.1
	c-7-0.5-14.5-1.1-21.5-1.1c-9.1,0-17.8,0.5-26.9,1.1c-22.6,2.2-42.5-14-45.2-36c-2.7-22.1,12.4-42.5,34.4-46.3
	C250.6,35.5,261.9,34.9,273.2,34.9z"/>
</svg>
