<?xml version="1.0" encoding="utf-8"?>
<!-- Generator: Adobe Illustrator 22.0.0, SVG Export Plug-In . SVG Version: 6.00 Build 0)  -->
<svg version="1.1" id="Layer_1" xmlns="http://www.w3.org/2000/svg" xmlns:xlink="http://www.w3.org/1999/xlink" x="0px" y="0px"
	 viewBox="0 0 595.3 106.9" style="enable-background:new 0 0 595.3 106.9;" xml:space="preserve">
<style type="text/css">
	.st0{fill:#2F2D51;}
</style>
<g>
	<path class="st0" d="M108.9,72.5c1.1-4.1,2.8-8.2,3.2-12.3c0.8-10.1,0.9-20.3,1.4-30.4c0.1-2.6,0-5.3,0.6-7.8
		c1.4-5.6,6.2-9.3,11.7-9.5c5.6-0.2,10.5,3.2,12.5,8.6c0.4,1,0.7,2,0.7,3.1c0.7,18.7,1.3,37.5-5.3,55.5
		c-3.9,10.5-10.2,18.9-22.2,20.7c-11.4,1.7-21.6-4-26.8-15.2c-5.1-10.8-6.9-22.5-8-34.1c-0.8-8.9-0.4-17.9-0.1-26.8
		c0.4-9.2,5.2-14.2,12.8-13.9c7.6,0.3,12.8,6.3,12.2,15.4c-0.9,13.2,0.7,26,3.4,38.9c0.6,2.7,1.5,5.2,2.2,7.9
		C107.8,72.4,108.3,72.4,108.9,72.5z"/>
	<path class="st0" d="M286.2,55.6c-0.1-12.9,1.3-25.9,10.2-37.1c5.5-7,12.7-11.5,21-14.1c2.5-0.8,5.5-0.8,8.2-0.5
		c5.3,0.6,9.1,4.8,9.7,10c0.6,5.4-2.5,10.2-7.7,12c-13.7,4.8-17.4,9.6-17.9,24.2c-0.2,5.5,0.4,11.1,1,16.5c0.3,2.6,1.1,5.2,2.4,7.4
		c0.8,1.3,2.9,2.5,4.5,2.5c0.9,0,2.4-2.2,2.7-3.6c0.8-3.7,0.8-7.2-1.8-10.8c-5.5-7.5-0.4-17.3,8.9-17.8c3.3-0.2,6.6,0.1,9.8,0.6
		c7,1.1,10.8,8.1,8.8,15c-1.1,3.6-1.7,7.3-2,11.1c-0.5,7-2.1,13.5-5.9,19.4c-3.6,5.6-8.6,9.1-15.1,9.7c-13.9,1.3-26.5-4-31.8-17.9
		c-1.6-4.2-2.7-8.6-3.4-12.9C286.8,65,286.7,60.6,286.2,55.6z"/>
	<path class="st0" d="M173.2,66.7c-2,5.2-3.9,10.6-6.1,15.7c-1.7,4-3.5,8-5.8,11.7c-3.8,6-11.1,7.8-16.9,4.7
		c-5.9-3.2-8.2-10.1-5.5-16.7c7.9-19.4,15.8-38.8,23.7-58.2c2.6-6.5,7.3-9.9,13.4-9.8c6.1,0.1,11,3.6,13.1,10.2
		c4.7,15.4,9,30.9,13.6,46.3c1.2,4,2.7,8,4.3,11.8c3.3,7.7,1.2,15-5.5,18.3c-6.6,3.3-14.3,0.7-17.7-7c-3.3-7.6-5.6-15.6-8.4-23.4
		c-0.4-1.2-0.8-2.4-1.2-3.7C173.9,66.7,173.6,66.7,173.2,66.7z"/>
	<path class="st0" d="M240.8,71.7c0.2,2.5,0.5,5.1,0.5,7.6c0,2.9,0.1,5.9-0.6,8.6c-1.4,5.2-6.6,8.6-12,8.6c-5.6,0-10.6-3.7-12-9.1
		c-0.9-3.3-1.3-6.7-1.5-10.1c-0.9-16.2-1.7-32.3-2.3-48.5c-0.3-7.2,3-12.1,8.6-14.1c5.8-2.1,11.6-0.3,15.6,5.2
		c11.9,16.4,23.6,32.9,35.3,49.4c1.2,1.7,2.2,3.6,3.1,5.5c3.1,6.5,1.1,13.5-4.7,16.9c-5.9,3.5-12.9,2-17.2-3.8
		c-3.3-4.4-6.2-9.1-9.4-13.7c-0.7-1-1.6-1.9-2.4-2.8C241.4,71.5,241.1,71.6,240.8,71.7z"/>
	<path class="st0" d="M557.3,66.4c-3,6.3-6.1,12.7-9.1,19c-3.1,6.5-8.8,9.6-15,8.3c-7-1.5-11.5-8.5-9.5-15.7
		c1.4-4.9,3.6-9.6,5.9-14.2c6.4-13,12.9-25.9,19.6-38.8c1.4-2.7,3.6-5.4,6-7.1c6.8-4.8,15.5-2.2,19.6,5.7c1.4,2.6,2.1,5.7,2.8,8.6
		c3.7,14.9,7.3,29.9,10.8,44.9c0.6,2.6,1,5.5,0.6,8.1c-0.8,5.4-5.4,9.3-10.8,10c-5.4,0.7-11-2.1-13.1-7.5
		c-2.2-5.5-3.6-11.3-5.4-16.9c-0.5-1.5-0.9-2.9-1.4-4.4C558,66.5,557.6,66.5,557.3,66.4z"/>
	<path class="st0" d="M400.5,52.5c4.1,3.3,7.9,6.3,11.7,9.3c4.5,3.6,9.4,6.9,13.6,10.8c4.2,4,4.6,10.1,1.9,15
		c-2.6,4.6-7.8,7.3-13,6.2c-2.2-0.5-4.6-1.4-6.4-2.8c-11.7-8.9-23.5-17.8-35-27.1c-7.7-6.2-7.2-16.4,0.4-22.9
		c10.8-9.3,21.3-18.8,32-28.1c1.5-1.3,2.9-2.7,4.6-3.7c5.9-3.8,12.9-2.8,17.1,2.2c4.2,5.1,4.1,12.3-0.8,17.2
		c-7.2,7.1-14.8,13.9-22.2,20.8C403.2,50.3,402.1,51.1,400.5,52.5z"/>
	<path class="st0" d="M23.7,43C41.3,44.3,54.1,53,62,68.7c1.9,3.7,3.4,7.7,4.5,11.8c1.9,6.9-1.6,13.4-7.9,15.7
		c-6.4,2.3-12.9-0.6-16.1-7.1c-1-2.1-1.8-4.4-2.7-6.6c-3.7-8.7-9.7-13.8-19.7-13.4c-5.4,0.2-9.7-2.3-12.1-7.3
		c-2.2-4.5-1.7-9,1.2-13.1C12.8,43.8,18.1,43.1,23.7,43z"/>
	<path class="st0" d="M463.3,52.2c0,7.8,0.1,15.5,0,23.3c-0.1,5.5-2.5,9.6-7.6,11.9c-4.6,2.1-9,1.4-13-1.6
		c-3.4-2.6-4.9-6.2-5.1-10.3c-0.3-5.8-0.4-11.6-0.3-17.4c0.2-9.9,0.6-19.7,0.9-29.6c0.2-8.5,5.2-14.1,12.6-14.3
		c7.4-0.1,12.9,5.4,13.2,13.8c0.3,8,0.1,16,0.1,24.1C463.8,52.2,463.6,52.2,463.3,52.2z"/>
	<path class="st0" d="M501.9,36.1c-5.1,0-10.3,0.1-15.4,0c-7.6-0.1-13.1-5.1-13.6-12.1c-0.5-6.8,4.3-13,11.7-13.4
		c11.7-0.6,23.4-0.6,35,0.1c7.1,0.4,11.7,6.7,11.3,13.4c-0.4,6.7-5.7,11.6-12.8,12c-0.3,0-0.5,0-0.8,0
		C512.2,36.1,507,36.1,501.9,36.1C501.9,36.1,501.9,36.1,501.9,36.1z"/>
	<path class="st0" d="M36.2,9.4c4.5,0,9,0,13.4,0C57,9.5,62.4,14.3,63,20.9c0.6,6.9-3.5,12.4-10.6,14c-2.2,0.5-4.4,0.7-6.7,0.7
		c-6.9,0-13.7-0.1-20.6-0.2c-2.2-0.1-4.5-0.3-6.6-0.9c-6.1-1.7-10-7.3-9.4-13.4c0.6-6.3,5.6-11.1,12-11.6c2.5-0.2,5-0.1,7.5-0.1
		C31.2,9.3,33.7,9.3,36.2,9.4C36.2,9.4,36.2,9.4,36.2,9.4z"/>
	<path class="st0" d="M488.3,71.2c0.4-3.5,0.7-7.1,1.2-10.6c1.2-7.3,6.9-11.9,13.8-11.3c6.9,0.6,11.8,6,11.8,13.4
		c0,4.2-0.5,8.4-1.1,12.5c-1.1,7.2-6.6,11.8-13.3,11.4c-6.7-0.4-11.7-5.5-12.2-12.7c-0.1-0.9,0-1.8,0-2.8
		C488.4,71.2,488.3,71.2,488.3,71.2z"/>
	<path class="st0" d="M251.9,23c0.1-6.9,5.7-12.5,12.7-12.5c7.1,0,12.8,5.8,12.7,12.9c-0.1,7.1-6,12.7-13.1,12.5
		C257.2,35.8,251.8,30,251.9,23z"/>
</g>
</svg>
