<svg id="Layer_1" data-name="Layer 1" xmlns="http://www.w3.org/2000/svg" viewBox="0 0 72.77 70.79"><defs><style>.cls-1{fill:#efb5ac;}.cls-2{fill:#f7d9d3;}.cls-3{fill:#fbd558;}.cls-4{fill:#76c8ed;}.cls-5{fill:#0d1739;}.cls-6{fill:#1e1e1e;}.cls-7{fill:#0f1221;}.cls-24,.cls-8{fill:#fff;}.cls-9{fill:#3b4d9a;}.cls-10{fill:#e6e4e3;}.cls-11{fill:#171717;}.cls-12{fill:#e99a92;}.cls-13,.cls-24{font-size:3.93px;font-family:ChalkboardSE-Regular, Chalkboard SE;}.cls-13{fill:#010101;}.cls-14{letter-spacing:-0.04em;}.cls-15{letter-spacing:-0.01em;}.cls-16{letter-spacing:-0.04em;}.cls-17{letter-spacing:-0.02em;}.cls-18{letter-spacing:0.03em;}.cls-19{letter-spacing:0em;}.cls-20{letter-spacing:0.03em;}.cls-21{letter-spacing:-0.1em;}.cls-22{letter-spacing:-0.08em;}.cls-23{letter-spacing:0.01em;}.cls-25{letter-spacing:0.03em;}.cls-26{letter-spacing:0em;}.cls-27{letter-spacing:-0.04em;}.cls-28{letter-spacing:0.02em;}.cls-29{letter-spacing:-0.02em;}.cls-30{letter-spacing:0em;}</style></defs><title>item-consultation</title><path class="cls-1" d="M45.2,72.79a9.93,9.93,0,0,0-.2-1.33.5.5,0,0,1-.13-.32c-.31-2-.65-4.07-1-6.09,0-.15-.08-.3.07-.41a38.14,38.14,0,0,1,4,0s.07,0,.1,0a.58.58,0,0,1,.1.4c0,1.16.11,2.32.08,3.49,0,.6-.11,1.2-.08,1.81a.66.66,0,0,1-.09.33c-.06.56,0,1.12-.07,1.67,0,.16-.09.21-.24.22L46,72.73c-.11.07-.25,0-.35.06Z" transform="translate(-0.23 -2)"/><path class="cls-2" d="M45.62,72.79c.1-.11.23-.06.35-.06v.06Z" transform="translate(-0.23 -2)"/><path class="cls-3" d="M48,70.69c-.06-1,.08-2,.05-2.94s-.05-2-.07-3.06c0-.08.14-.11.21-.16a.37.37,0,0,0,.16-.26,8.18,8.18,0,0,0,0-1.4.32.32,0,0,0-.26-.29c-.11,0-.23,0-.33-.11a5.36,5.36,0,0,1-.21-1.26,47.36,47.36,0,0,0-.84-5c-.1-.4-.21-.81-.33-1.21a3.67,3.67,0,0,0-1.75-2.13,6.67,6.67,0,0,0-3-.86.81.81,0,0,1-.67-.23A3.91,3.91,0,0,0,40,50.54a12.36,12.36,0,0,1-.56-2.15.81.81,0,0,1,0-.38.56.56,0,0,1,.27-.21A3.83,3.83,0,0,0,42,45.41a6.45,6.45,0,0,0,.42-2.75A3.83,3.83,0,0,0,41,40,8.48,8.48,0,0,0,35.58,38a2.47,2.47,0,0,0-1.24.3c-.41.22-.65.08-.69-.4a2,2,0,0,1,0-.41,3.56,3.56,0,0,0-.5.76c0,.07-.09.16-.18.14s-.13-.1-.15-.18a3.88,3.88,0,0,1-.11-.83,5.4,5.4,0,0,0-1.07,2.21.9.9,0,0,0,.71,1.14c.17.06.37,0,.51.21a1.11,1.11,0,0,1,0,.48c0,1,0,2,0,2.93a11.35,11.35,0,0,0,.42,3.06,1.22,1.22,0,0,0,.85.88,1.94,1.94,0,0,1,.59.3,1.52,1.52,0,0,1,.43,2.08,4.66,4.66,0,0,0-.94,1.26,1,1,0,0,1-.39.13,8.34,8.34,0,0,0-2.13.77A3.65,3.65,0,0,0,30,54.62a25.05,25.05,0,0,0-1.74,6.63,11,11,0,0,1-.25,1.8.39.39,0,0,1-.23.14.37.37,0,0,0-.26.37,11.41,11.41,0,0,0,0,1.17.4.4,0,0,0,.39.41c.14,0,.3,0,.4.16a1.13,1.13,0,0,1,0,.41v4.57a.62.62,0,0,1-.12.49,27.17,27.17,0,0,1-3.3-1.1.66.66,0,0,0-.33-.09c-.19,0-.16-.21-.16-.34,0-1.25-.1-2.5-.15-3.76a20.07,20.07,0,0,0-.53-4.56,9.78,9.78,0,0,0-3.62-5.48,3,3,0,0,0-.53-.34.24.24,0,0,1-.09-.06c-.4-.39-.88-.67-1.31-1s-.72-.58-1.07-.88a2.57,2.57,0,0,1-1-1.31c0-.12-.11-.25,0-.39a.43.43,0,0,1,.28-.11c.8-.1,1.59-.23,2.39-.35.62-.09.7-.2.72-.84a18.51,18.51,0,0,0-.15-2.78c-.21-1.67-.54-3.33-.81-5a4,4,0,0,0-2.57-3.27,6.58,6.58,0,0,0-4.7-.28,4.83,4.83,0,0,0-2.84,2.34,6.73,6.73,0,0,0-.67,5,4.87,4.87,0,0,1,0,2.08,16.55,16.55,0,0,1-.61,2.4,2.57,2.57,0,0,0-.19,1,.67.67,0,0,0,.59.7,1.76,1.76,0,0,0,.56,0c.68-.1,1.36-.15,2-.25a1.14,1.14,0,0,1,.45,0c.21.12.1.3.09.46A8.46,8.46,0,0,1,9.7,54.85a2.63,2.63,0,0,1-.85.81c-.23.07-.44.2-.69.07a5.65,5.65,0,0,0-.65-1.21A37.39,37.39,0,0,1,4.94,49a33.77,33.77,0,0,1-1.5-5.6c-.18-.95-.3-1.92-.39-2.88-.12-1.24-.18-2.48-.19-3.72.16-.09.29,0,.43.07a10.24,10.24,0,0,0,4,.74,13.93,13.93,0,0,0,2.94-.38,22.79,22.79,0,0,1,5.4-.58,5.78,5.78,0,0,1,3.26.88,2.25,2.25,0,0,1,1,2.31,11.84,11.84,0,0,1-.39,1.8A3.72,3.72,0,0,0,20.64,39c0-.34.06-.68.11-1a2.62,2.62,0,0,1,1.82-2.11,10.2,10.2,0,0,1,1.4-.42,2.65,2.65,0,0,0,2-1.75,11.57,11.57,0,0,0,.62-3c.16-1.37.29-2.73.34-4.1a6.87,6.87,0,0,0-4.59-7.09,12.4,12.4,0,0,0-3.53-.62A20.26,20.26,0,0,0,11.47,20,15.32,15.32,0,0,0,6.11,23c-.09.08-.17.2-.33.14A33.49,33.49,0,0,1,8,18.89a31.48,31.48,0,0,1,3.14-4.38A35.16,35.16,0,0,1,22,5.87,34.19,34.19,0,0,1,35.18,2.14,28.9,28.9,0,0,1,38.9,2a38.22,38.22,0,0,1,6.81.86,35,35,0,0,1,7.44,2.61,36.29,36.29,0,0,1,6.76,4.26,36.74,36.74,0,0,1,3.86,3.62,33.25,33.25,0,0,1,4.45,6,34.56,34.56,0,0,1,3.14,7.06,33.61,33.61,0,0,1,1.23,5.34c.2,1.38.29,2.76.37,4.15a25.23,25.23,0,0,1,0,3.37,34.61,34.61,0,0,1-1.53,8.25,35.45,35.45,0,0,1-2.46,5.91A35.93,35.93,0,0,1,62,62.59a35.89,35.89,0,0,1-6.67,4.94,37,37,0,0,1-7.11,3.09Z" transform="translate(-0.23 -2)"/><path class="cls-4" d="M4.7,22.15a16.47,16.47,0,0,1,3.7-2.44,25.09,25.09,0,0,1,6.27-1.9,18.2,18.2,0,0,1,4.36-.2,9.76,9.76,0,0,1,5.65,1.87A7.54,7.54,0,0,1,27.31,24a10.4,10.4,0,0,1,.05,3.05c-.08,1-.17,2.08-.28,3.12a12.94,12.94,0,0,1-.71,3.42,2.89,2.89,0,0,1-2.14,1.85,8.83,8.83,0,0,0-1.94.64,2.67,2.67,0,0,0-1.5,2.3c0,.5-.09,1-.16,1.49a3.86,3.86,0,0,1-1.36,2.43c.15-.68.34-1.25.44-1.84A2.58,2.58,0,0,0,18,37.3a8.26,8.26,0,0,0-3.41-.54,26.43,26.43,0,0,0-5.39.69,12.13,12.13,0,0,1-7.64-.63A3.4,3.4,0,0,1,.29,34.2a16.27,16.27,0,0,1,.64-5.68,12.64,12.64,0,0,1,3.73-6.31S4.69,22.17,4.7,22.15Z" transform="translate(-0.23 -2)"/><path class="cls-5" d="M19.62,55c.17-.08.26.06.36.13a9.77,9.77,0,0,1,3.91,5.68,17.46,17.46,0,0,1,.52,4.07c.05,1.5.14,3,.21,4.49a1,1,0,0,0,0,.17c0,.81.05,1.62.09,2.43,0,.24-.06.29-.28.29-.75,0-1.5.11-2.25.07a1.06,1.06,0,0,1-.14-.67,40.17,40.17,0,0,1-.17-4.39c0-.37.13-.73.14-1.1a4.62,4.62,0,0,0-.81-2.91,1.63,1.63,0,0,1-.16-.3,6,6,0,0,1,.5,3.46,19,19,0,0,0,0,3.37c0,.44,0,.87,0,1.3v.34c0,.4-.05.85.53.91a18.62,18.62,0,0,1-2.11.09c-3.86.13-7.73.18-11.59.2l-.28,0a3.19,3.19,0,0,1,0-1.27A15.69,15.69,0,0,0,8,67.63a5.41,5.41,0,0,0-.31-1,5.42,5.42,0,0,1-.41-2.9A2.93,2.93,0,0,1,7.44,63a3.77,3.77,0,0,0-.39,2.76,6.23,6.23,0,0,0,.22,1,7.73,7.73,0,0,1,.32,3.1c0,.78-.09,1.57-.16,2.36a.55.55,0,0,1-.18.44l-3.76,0c-.21,0-.22-.1-.22-.26-.07-2.27-.14-4.55-.16-6.83a19,19,0,0,1,.38-4.39A7.5,7.5,0,0,1,5.75,57a6.15,6.15,0,0,1,2.41-1.27l.7-.13c.13,0,.23,0,.33.08a10.91,10.91,0,0,1,4.69,4.41l.24.46c.17.33.19.33.46.09l.12-.12c.6-.54,1.21-1.08,1.77-1.68.73-.79,1.43-1.61,2.1-2.47.26-.34.5-.7.77-1C19.42,55.23,19.48,55.09,19.62,55Z" transform="translate(-0.23 -2)"/><path class="cls-6" d="M41,51.68c.07.2.25.17.4.18a7.64,7.64,0,0,1,2.87.68A4.18,4.18,0,0,1,46.6,55.3a44,44,0,0,1,1,5.68c.06.49.11,1,.17,1.46-.15.16-.35.12-.53.12H44.15c-.6,0-.72.13-.73.72v.55c0,.59.08.68.66.68h3.59c.18,0,.38,0,.53.11l-.21.07H43.86a7.39,7.39,0,0,0,.06,1.15c0,1.46,0,2.93,0,4.39a4.71,4.71,0,0,1-.15,1.45.14.14,0,0,0,0,.07c0,.28.11.66-.08.84s-.57.07-.87.07c-1.89,0-3.78,0-5.68,0-1.39,0-2.79,0-4.18,0-.21,0-.26-.08-.26-.25s0-.44,0-.66a1.34,1.34,0,0,1-.15-.67c-.05-.87-.1-1.74-.17-2.6-.1-1.08,0-2.16-.11-3.23,0-.09.07-.14.14-.18a.54.54,0,0,0,.26-.47c0-.31,0-.63,0-.94a.47.47,0,0,0-.44-.5,3.81,3.81,0,0,0-.59,0h-3c-.17,0-.35,0-.49-.1a27.58,27.58,0,0,1,1.85-8.26A4.17,4.17,0,0,1,32,52.53a12,12,0,0,1,2.25-.71.92.92,0,0,1,.65-.09,29.18,29.18,0,0,0,3,.06A20.48,20.48,0,0,0,41,51.68Z" transform="translate(-0.23 -2)"/><path class="cls-1" d="M28.28,70.77V65.26a.48.48,0,0,1,.41-.12c.95,0,1.89,0,2.83,0a.69.69,0,0,1,.4.08.71.71,0,0,1,.1.47c0,1.84,0,3.67,0,5.51,0,.25-.16.49-.06.75,0,.48,0,.48-.46.49-1,0-1.92,0-2.88.08-.26,0-.35,0-.35-.32C28.31,71.72,28.29,71.25,28.28,70.77Z" transform="translate(-0.23 -2)"/><path class="cls-7" d="M7.25,72.65a3.69,3.69,0,0,0,.13-1c.09-.77.12-1.55.15-2.32A10.35,10.35,0,0,0,7,66.17a3.9,3.9,0,0,1,.19-2.94,1.17,1.17,0,0,1,.38-.47c-.07.37-.16.7-.21,1a6,6,0,0,0,.53,3.06,6.13,6.13,0,0,1,.32,1.53,20.57,20.57,0,0,1,.06,2.22c0,.68-.09,1.36-.14,2Z" transform="translate(-0.23 -2)"/><path class="cls-7" d="M22.14,72.38c-.61,0-.64,0-.62-.67a23.33,23.33,0,0,0-.11-3c-.11-1.07.12-2.11.11-3.16a6.38,6.38,0,0,0-.58-2.62s-.07-.08,0-.14A4.47,4.47,0,0,1,22.07,65a8.07,8.07,0,0,1,0,2.14,9.64,9.64,0,0,0,0,2.4c.06.45,0,.9.07,1.36a11.64,11.64,0,0,1,.09,1.45h-.07Z" transform="translate(-0.23 -2)"/><path class="cls-3" d="M43.75,71.68c0-1.42.06-2.83.08-4.24,0-.81,0-1.62,0-2.43,0-.11-.07-.23.06-.32.2,1.09.41,2.18.6,3.28s.42,2.31.54,3.49A6.54,6.54,0,0,0,43.75,71.68Z" transform="translate(-0.23 -2)"/><path class="cls-3" d="M32,72a1.3,1.3,0,0,1-.05-.65c0-2,0-4,0-6a.18.18,0,0,1,.26,0c.19,0,.14.15.14.26,0,1.46,0,2.92.14,4.38,0,.63.09,1.25.13,1.88l-.34-.07C32,71.61,32,71.73,32,72Z" transform="translate(-0.23 -2)"/><path class="cls-8" d="M43.57,41.4A7.91,7.91,0,0,0,44.82,40l.15-.24a1.07,1.07,0,0,0-.69-1.65,15.27,15.27,0,0,1-4.37-2.22A19.06,19.06,0,0,1,35.2,31a6,6,0,0,1-1-3.44,6.33,6.33,0,0,1,1.65-4.09,8.71,8.71,0,0,1,3.84-2.43,37.93,37.93,0,0,1,6-1.69,33.77,33.77,0,0,1,3.9-.48c.94-.06,1.88-.07,2.82,0s1.92.13,2.88.24c.73.09,1.48.1,2.22.17a23.54,23.54,0,0,1,8.52,2.16A9.56,9.56,0,0,1,70.69,26a9.81,9.81,0,0,1,.8,3.15,12.17,12.17,0,0,1-.2,3.81,6,6,0,0,1-3.72,4.24,13.46,13.46,0,0,1-4.16.94c-1.18.1-2.37.06-3.55.05a16.33,16.33,0,0,1-2.41-.38,24.62,24.62,0,0,0-5-.3,13.11,13.11,0,0,0-2.13.34,4.28,4.28,0,0,0-2.72,1.91,3.69,3.69,0,0,1-2.53,1.57A5.24,5.24,0,0,1,43.57,41.4Z" transform="translate(-0.23 -2)"/><path class="cls-9" d="M10.75,52.17c-.78.09-1.57.16-2.35.26-1.2.16-1.68-.35-1.32-1.5a25.17,25.17,0,0,0,.76-3.08,6.67,6.67,0,0,0-.2-2.27,6.6,6.6,0,0,1,1-4.86,5.58,5.58,0,0,1,5.84-2.21,8.77,8.77,0,0,1,1.24.35,4.37,4.37,0,0,1,3,3.74c.29,2,.71,3.93.87,5.93a7.63,7.63,0,0,1,0,2.08.43.43,0,0,1-.42.41c-1,.14-2,.3-3,.45-.17-.12-.15-.32-.22-.49a.74.74,0,0,1,0-.39.58.58,0,0,1,.23-.21,2.82,2.82,0,0,0,1.39-2.33,7.41,7.41,0,0,0-.11-2.15.6.6,0,0,0-.27-.43A13.37,13.37,0,0,1,15.52,44a11.47,11.47,0,0,1-.95-1c-.12-.15-.2-.22-.32,0a11.27,11.27,0,0,1-4.18,4,.69.69,0,0,0-.36.65,3.51,3.51,0,0,0,.82,2.42A2.49,2.49,0,0,1,10.88,52,.16.16,0,0,1,10.75,52.17Z" transform="translate(-0.23 -2)"/><path class="cls-1" d="M16.08,51l.13.49a2.6,2.6,0,0,0,1,1.61,1.14,1.14,0,0,1-.37.54,15,15,0,0,1-2.49,1.91.48.48,0,0,1-.6,0,18,18,0,0,1-2-1.59,3.72,3.72,0,0,1-1-1.32v-.43a2.42,2.42,0,0,0-.48-2.28,2.89,2.89,0,0,1-.63-1.74,1.17,1.17,0,0,1,.65-1.4,10.58,10.58,0,0,0,3.57-3.28c.17-.27.32-.56.5-.86a19.27,19.27,0,0,0,1.51,1.61,12.85,12.85,0,0,0,1.46,1.19c.11.07.22.14.24.28a6.82,6.82,0,0,1,0,3.08,2.71,2.71,0,0,1-1.52,1.8,3,3,0,0,1-1.79.33s0,.06,0,0,0,0,0,0A6,6,0,0,0,16.08,51Z" transform="translate(-0.23 -2)"/><path class="cls-9" d="M32.83,40.88l-.18,0c-1-.17-1.32-.72-1-1.67a7.35,7.35,0,0,1,1.19-2.12A4.93,4.93,0,0,0,33,38.34a5.42,5.42,0,0,1,.83-1.21,2.68,2.68,0,0,0-.07.82c.07.34.21.41.51.24a3.48,3.48,0,0,1,2.31-.28,9.55,9.55,0,0,1,3.81,1.47,4.35,4.35,0,0,1,2,4.72,8.72,8.72,0,0,1-.31,1.22A4,4,0,0,1,39.53,48a.24.24,0,0,1-.2,0,4.18,4.18,0,0,1-1.9-2.18,3.6,3.6,0,0,1,0-2.13,1.93,1.93,0,0,0-1.26-2.46A5,5,0,0,0,35,41c-.58-.06-1.16,0-1.74,0A.79.79,0,0,1,32.83,40.88Z" transform="translate(-0.23 -2)"/><path class="cls-1" d="M32.83,40.88a11.92,11.92,0,0,1,3,.11,2.07,2.07,0,0,1,1.62,2.78,3.33,3.33,0,0,0,1.3,3.7c.24.18.49.34.74.52A10.9,10.9,0,0,0,40,50.16c0,.13.08.26.11.4-.13.15-.31.12-.48.12H37.18c-.54,0-1.06.12-1.6.07-.16,0-.33,0-.44-.14.45-1.07.22-1.85-.82-2.19a1.8,1.8,0,0,1-1.21-1.58,16,16,0,0,1-.29-3.31C32.83,42.64,32.82,41.76,32.83,40.88Z" transform="translate(-0.23 -2)"/><path class="cls-10" d="M10.75,52.6a13,13,0,0,0,3.13,2.88.3.3,0,0,0,.4,0,12.71,12.71,0,0,0,3-2.41c.74.59,1.47,1.22,2.26,1.75.05,0,.07.11.11.16a.41.41,0,0,1-.25.18,9.8,9.8,0,0,0-3.16,1.94c-.35.3-.43.28-.68-.09a8,8,0,0,0-.76-1c0,1.53,0,3,0,4.52l-.48.43-.44-.87c-.06-1.21-.05-2.43,0-3.65a2.69,2.69,0,0,1-.19.61c-.13.32-.23.37-.52.17a12.24,12.24,0,0,0-3.91-1.54H9.14l-.28-.13a6.29,6.29,0,0,0,1.82-2.89A.34.34,0,0,1,10.75,52.6Z" transform="translate(-0.23 -2)"/><path class="cls-11" d="M32.2,65.23l-.26,0h-4a.46.46,0,0,1-.49-.51v-1c0-.54.05-.61.57-.72,1.23,0,2.46,0,3.68,0a3.61,3.61,0,0,1,.66.08c.24,0,.32.24.33.47s0,.76,0,1.14S32.47,65.16,32.2,65.23Z" transform="translate(-0.23 -2)"/><path class="cls-11" d="M48.2,64.62H43.84c-.38,0-.52-.14-.53-.52s0-.72,0-1.08a.53.53,0,0,1,.59-.57h3.91c.65.07.68.11.68.77v1C48.49,64.38,48.44,64.57,48.2,64.62Z" transform="translate(-0.23 -2)"/><path class="cls-8" d="M14.75,60.58a.22.22,0,0,1-.09-.21V55.81a7.73,7.73,0,0,1,.92,1.13c.23.37.24.37.55.09a9.63,9.63,0,0,1,3.48-2,.43.43,0,0,0,0,0A27.63,27.63,0,0,1,14.75,60.58Z" transform="translate(-0.23 -2)"/><path class="cls-11" d="M35.14,50.61l5,0A2.28,2.28,0,0,1,41,51.68a.16.16,0,0,1-.19.15c-.42,0-.83.09-1.25.08-1,0-2,0-3,0-.77,0-1.53-.09-2.3-.09A2.51,2.51,0,0,1,35.14,50.61Z" transform="translate(-0.23 -2)"/><path class="cls-8" d="M9.14,55.73c.22-.13.43,0,.63.06a10,10,0,0,1,3.45,1.44c.19.13.26.09.32-.1a3.19,3.19,0,0,1,.35-.75c0,1,0,2.06,0,3.08a1.21,1.21,0,0,1-.06.68,11,11,0,0,0-4.35-4.22Z" transform="translate(-0.23 -2)"/><path class="cls-12" d="M16.08,51a2.41,2.41,0,0,1-1.9-.1,8,8,0,0,0,1.88-.31Z" transform="translate(-0.23 -2)"/><path class="cls-3" d="M18.44,63.43a.16.16,0,0,1-.07.13l-.07,0-.06,0h0s0,0,0,0l.05,0,.07,0,.05,0a.12.12,0,0,1,.05.09.15.15,0,0,1-.23.16L18.12,64l-.09,0-.14-.1-.05,0a.16.16,0,0,1,0-.23.1.1,0,0,1,.05,0,1.37,1.37,0,0,1,.2-.13l.06,0,.09-.05a.15.15,0,0,1,.16,0,.19.19,0,0,1,.07.11Z" transform="translate(-0.23 -2)"/><path class="cls-3" d="M17.73,63.12v1H18s0,0,0,0a0,0,0,0,1,0,0h-.3a0,0,0,0,1,0,0v-2a0,0,0,0,1,0,0h.81s0,0,0,0h0v2h0s0,0,0,0h-.41l-.09.13v0h0a0,0,0,0,1,0,0l0,0,.08-.13,0,0h.39V62.16h-.76v1Z" transform="translate(-0.23 -2)"/><path class="cls-3" d="M18.27,63.22a.15.15,0,0,1-.14-.09.17.17,0,0,0,0-.05l0,0L18,63l-.06,0h0a.16.16,0,0,1-.07-.28.12.12,0,0,1,.12,0H18a.51.51,0,0,1,.15.07l.08.07,0,0,.05.08a.83.83,0,0,1,.07.13.16.16,0,0,1,0,.15.12.12,0,0,1-.11.07Z" transform="translate(-0.23 -2)"/><path class="cls-3" d="M18,62.2h.25a.13.13,0,0,1,.12.11.14.14,0,0,1-.12.19H18a.16.16,0,0,1-.17-.13.17.17,0,0,1,.13-.18H18Z" transform="translate(-0.23 -2)"/><text class="cls-13" transform="translate(38.42 25.86)">Hi <tspan class="cls-14" x="4.93" y="0">k</tspan><tspan class="cls-15" x="6.83" y="0">a</tspan><tspan x="8.91" y="0">k, sa</tspan><tspan class="cls-16" x="17.29" y="0">y</tspan><tspan x="19.25" y="0">a mau</tspan><tspan class="cls-17" x="0" y="4.71">k</tspan><tspan class="cls-18" x="1.98" y="4.71">o</tspan><tspan class="cls-19" x="4" y="4.71">ns</tspan><tspan class="cls-20" x="7.7" y="4.71">u</tspan><tspan class="cls-21" x="9.88" y="4.71">l</tspan><tspan class="cls-22" x="10.64" y="4.71">t</tspan><tspan class="cls-23" x="12.13" y="4.71">a</tspan><tspan x="14.28" y="4.71">si</tspan></text><text class="cls-24" transform="translate(2.91 26.15)">Hi, <tspan class="cls-25" x="5.93" y="0">a</tspan><tspan class="cls-26" x="8.17" y="0">da </tspan><tspan class="cls-27" x="13.79" y="0">y</tspan><tspan x="15.75" y="0">a</tspan><tspan class="cls-28" x="17.85" y="0">n</tspan><tspan x="19.92" y="0">g</tspan><tspan x="0" y="4.71">bisa di</tspan><tspan class="cls-29" x="11.48" y="4.71">b</tspan><tspan class="cls-26" x="13.58" y="4.71">a</tspan><tspan class="cls-16" x="15.69" y="4.71">n</tspan><tspan class="cls-30" x="17.55" y="4.71">tu</tspan></text></svg>